<svg width="180" height="20" viewBox="0 0 180 20" fill="none" xmlns="http://www.w3.org/2000/svg">
<g clip-path="url(#clip0_388_37070)">
<path d="M11.6667 7.75V10.1667H13.8333C14 10.1667 14.0833 10.3333 14.0833 10.5L13.75 12.0833C13.75 12.1667 13.5833 12.25 13.5 12.25H11.6667V18.3333H9.16667V12.3333H7.75C7.58333 12.3333 7.5 12.25 7.5 12.0833V10.5C7.5 10.3333 7.58333 10.25 7.75 10.25H9.16667V7.5C9.16667 6.08333 10.25 5 11.6667 5H13.9167C14.0833 5 14.1667 5.08333 14.1667 5.25V7.25C14.1667 7.41667 14.0833 7.5 13.9167 7.5H11.9167C11.75 7.5 11.6667 7.58333 11.6667 7.75Z" stroke="#181D24" stroke-miterlimit="10" stroke-linecap="round"/>
<path d="M12.4993 18.3337H7.49935C3.33268 18.3337 1.66602 16.667 1.66602 12.5003V7.50033C1.66602 3.33366 3.33268 1.66699 7.49935 1.66699H12.4993C16.666 1.66699 18.3327 3.33366 18.3327 7.50033V12.5003C18.3327 16.667 16.666 18.3337 12.4993 18.3337Z" stroke="#181D24" stroke-linecap="round" stroke-linejoin="round"/>
</g>
<g clip-path="url(#clip1_388_37070)">
<path d="M54.166 16.6663H45.8327C43.3327 16.6663 41.666 14.9997 41.666 12.4997V7.49967C41.666 4.99967 43.3327 3.33301 45.8327 3.33301H54.166C56.666 3.33301 58.3327 4.99967 58.3327 7.49967V12.4997C58.3327 14.9997 56.666 16.6663 54.166 16.6663Z" stroke="#181D24" stroke-miterlimit="10" stroke-linecap="round" stroke-linejoin="round"/>
<path d="M49.5 7.91676L51.5833 9.16676C52.3333 9.66676 52.3333 10.4168 51.5833 10.9168L49.5 12.1668C48.6667 12.6668 48 12.2501 48 11.3334V8.83342C48 7.75009 48.6667 7.41676 49.5 7.91676Z" stroke="#181D24" stroke-miterlimit="10" stroke-linecap="round" stroke-linejoin="round"/>
</g>
<g clip-path="url(#clip2_388_37070)">
<path d="M95.4173 3.99121C93.2507 7.78288 89.0757 9.95788 84.7257 9.56621L82.084 9.32454" stroke="#181D24" stroke-miterlimit="10" stroke-linecap="round" stroke-linejoin="round"/>
<path d="M84.583 16.1417C86.7497 12.3501 90.9247 10.1751 95.2747 10.5667L97.9163 10.8084" stroke="#181D24" stroke-miterlimit="10" stroke-linecap="round" stroke-linejoin="round"/>
<path d="M89.9993 18.3337C94.6017 18.3337 98.3327 14.6027 98.3327 10.0003C98.3327 5.39795 94.6017 1.66699 89.9993 1.66699C85.397 1.66699 81.666 5.39795 81.666 10.0003C81.666 14.6027 85.397 18.3337 89.9993 18.3337Z" stroke="#181D24" stroke-miterlimit="10" stroke-linecap="round" stroke-linejoin="round"/>
<path d="M86.3584 2.5L89.0084 5.79167C90.7834 7.99167 92.0417 10.55 92.7084 13.2917L93.7167 17.45" stroke="#181D24" stroke-miterlimit="10" stroke-linecap="round" stroke-linejoin="round"/>
</g>
<g clip-path="url(#clip3_388_37070)">
<path d="M129.999 1.66699H127.249C125.666 1.66699 124.416 2.91699 124.416 4.41699C124.416 5.91699 125.666 7.16699 127.166 7.16699H129.999V1.66699Z" stroke="#181D24" stroke-miterlimit="10"/>
<path d="M130 7.25H127.25C125.75 7.25 124.5 8.5 124.5 10C124.5 11.5 125.75 12.75 127.25 12.75H130V7.25Z" stroke="#181D24" stroke-miterlimit="10"/>
<path d="M130 12.75H127.25C125.75 12.75 124.5 14 124.5 15.5C124.5 17 125.75 18.25 127.25 18.25C128.75 18.25 130 17 130 15.5V12.75Z" stroke="#181D24" stroke-miterlimit="10"/>
<path d="M130 1.66699H132.75C134.25 1.66699 135.5 2.91699 135.5 4.41699C135.5 5.91699 134.25 7.16699 132.75 7.16699H130V1.66699Z" stroke="#181D24" stroke-miterlimit="10"/>
<path d="M132.75 7.25C134.25 7.25 135.5 8.5 135.5 10C135.5 11.5 134.25 12.75 132.75 12.75C131.25 12.75 130 11.5 130 10C130 8.5 131.25 7.25 132.75 7.25Z" stroke="#181D24" stroke-miterlimit="10"/>
</g>
<g clip-path="url(#clip4_388_37070)">
<path d="M165.749 17.167C166.999 17.917 168.499 18.3337 169.999 18.3337C174.583 18.3337 178.333 14.5837 178.333 10.0003C178.333 5.41699 174.583 1.66699 169.999 1.66699C165.416 1.66699 161.666 5.41699 161.666 10.0003C161.666 11.5003 162.083 12.917 162.749 14.167L162.106 16.6396C161.912 17.3886 162.605 18.0654 163.349 17.8528L165.749 17.167Z" stroke="#181D24" stroke-miterlimit="10" stroke-linecap="round" stroke-linejoin="round"/>
<path d="M173.75 12.3737C173.75 12.5087 173.72 12.6475 173.656 12.7825C173.592 12.9175 173.51 13.045 173.401 13.165C173.217 13.3675 173.014 13.5138 172.785 13.6075C172.559 13.7013 172.315 13.75 172.052 13.75C171.669 13.75 171.26 13.66 170.828 13.4763C170.396 13.2925 169.964 13.045 169.536 12.7338C169.104 12.4188 168.695 12.07 168.304 11.6837C167.918 11.2937 167.568 10.885 167.257 10.4575C166.949 10.03 166.701 9.6025 166.52 9.17875C166.34 8.75125 166.25 8.3425 166.25 7.9525C166.25 7.6975 166.295 7.45375 166.385 7.22875C166.475 7 166.618 6.79 166.817 6.6025C167.057 6.36625 167.32 6.25 167.598 6.25C167.703 6.25 167.809 6.2725 167.902 6.3175C168 6.3625 168.087 6.43 168.154 6.5275L169.025 7.75375C169.093 7.8475 169.142 7.93375 169.176 8.01625C169.209 8.095 169.228 8.17375 169.228 8.245C169.228 8.335 169.202 8.425 169.149 8.51125C169.101 8.5975 169.029 8.6875 168.939 8.7775L168.654 9.07375C168.612 9.115 168.594 9.16375 168.594 9.22375C168.594 9.25375 168.597 9.28 168.605 9.31C168.616 9.34 168.627 9.3625 168.635 9.385C168.702 9.50875 168.819 9.67 168.984 9.865C169.153 10.06 169.333 10.2588 169.529 10.4575C169.731 10.6563 169.927 10.84 170.126 11.0087C170.321 11.1737 170.483 11.2862 170.61 11.3537C170.629 11.3612 170.652 11.3725 170.678 11.3837C170.708 11.395 170.738 11.3987 170.772 11.3987C170.836 11.3987 170.884 11.3763 170.926 11.335L171.211 11.0538C171.305 10.96 171.395 10.8887 171.482 10.8438C171.568 10.7912 171.654 10.765 171.748 10.765C171.82 10.765 171.895 10.78 171.977 10.8138C172.06 10.8475 172.146 10.8963 172.24 10.96L173.483 11.8412C173.581 11.9087 173.649 11.9875 173.69 12.0812C173.727 12.175 173.75 12.2687 173.75 12.3737Z" stroke="#181D24" stroke-miterlimit="10"/>
</g>
<defs>
<clipPath id="clip0_388_37070">
<rect width="20" height="20" rx="10" fill="white"/>
</clipPath>
<clipPath id="clip1_388_37070">
<rect x="40" width="20" height="20" rx="10" fill="white"/>
</clipPath>
<clipPath id="clip2_388_37070">
<rect x="80" width="20" height="20" rx="10" fill="white"/>
</clipPath>
<clipPath id="clip3_388_37070">
<rect x="120" width="20" height="20" rx="10" fill="white"/>
</clipPath>
<clipPath id="clip4_388_37070">
<rect x="160" width="20" height="20" rx="10" fill="white"/>
</clipPath>
</defs>
</svg>
