<svg width="114" height="30" viewBox="0 0 114 30" fill="none" xmlns="http://www.w3.org/2000/svg">
<path d="M17.5 11.625V15.25H20.75C21 15.25 21.125 15.5 21.125 15.75L20.625 18.125C20.625 18.25 20.375 18.375 20.25 18.375H17.5V27.5H13.75V18.5H11.625C11.375 18.5 11.25 18.375 11.25 18.125V15.75C11.25 15.5 11.375 15.375 11.625 15.375H13.75V11.25C13.75 9.125 15.375 7.5 17.5 7.5H20.875C21.125 7.5 21.25 7.625 21.25 7.875V10.875C21.25 11.125 21.125 11.25 20.875 11.25H17.875C17.625 11.25 17.5 11.375 17.5 11.625Z" stroke="white" stroke-width="1.5" stroke-miterlimit="10" stroke-linecap="round"/>
<path d="M18.752 27.499H11.252C5.00195 27.499 2.50195 24.999 2.50195 18.749V11.249C2.50195 4.99902 5.00195 2.49902 11.252 2.49902H18.752C25.002 2.49902 27.502 4.99902 27.502 11.249V18.749C27.502 24.999 25.002 27.499 18.752 27.499Z" stroke="white" stroke-width="1.5" stroke-linecap="round" stroke-linejoin="round"/>
<path d="M63.252 25.001H50.752C47.002 25.001 44.502 22.501 44.502 18.751V11.251C44.502 7.50098 47.002 5.00098 50.752 5.00098H63.252C67.002 5.00098 69.502 7.50098 69.502 11.251V18.751C69.502 22.501 67.002 25.001 63.252 25.001Z" stroke="white" stroke-width="1.5" stroke-miterlimit="10" stroke-linecap="round" stroke-linejoin="round"/>
<path d="M56.25 11.8751L59.375 13.7501C60.5 14.5001 60.5 15.6251 59.375 16.3751L56.25 18.2501C55 19.0001 54 18.3751 54 17.0001V13.2501C54 11.6251 55 11.1251 56.25 11.8751Z" stroke="white" stroke-width="1.5" stroke-miterlimit="10" stroke-linecap="round" stroke-linejoin="round"/>
<path d="M92.627 25.749C94.502 26.874 96.752 27.499 99.002 27.499C105.877 27.499 111.502 21.874 111.502 14.999C111.502 8.12402 105.877 2.49902 99.002 2.49902C92.127 2.49902 86.502 8.12402 86.502 14.999C86.502 17.249 87.127 19.374 88.127 21.249L87.1626 24.958C86.8705 26.0814 87.9103 27.0966 89.0264 26.7777L92.627 25.749Z" stroke="white" stroke-width="1.5" stroke-miterlimit="10" stroke-linecap="round" stroke-linejoin="round"/>
<path d="M104.625 18.5606C104.625 18.7631 104.58 18.9713 104.484 19.1738C104.388 19.3763 104.264 19.5675 104.101 19.7475C103.825 20.0513 103.521 20.2706 103.177 20.4113C102.839 20.5519 102.473 20.625 102.079 20.625C101.504 20.625 100.89 20.49 100.242 20.2144C99.5943 19.9388 98.9465 19.5675 98.3043 19.1006C97.6564 18.6281 97.0424 18.105 96.4565 17.5256C95.8763 16.9406 95.3523 16.3275 94.8848 15.6863C94.4228 15.045 94.051 14.4038 93.7806 13.7681C93.5102 13.1269 93.375 12.5137 93.375 11.9287C93.375 11.5462 93.4426 11.1806 93.5778 10.8431C93.713 10.5 93.9271 10.185 94.2257 9.90375C94.5862 9.54938 94.9805 9.375 95.3974 9.375C95.5551 9.375 95.7129 9.40875 95.8537 9.47625C96.0002 9.54375 96.1298 9.645 96.2312 9.79125L97.5381 11.6306C97.6395 11.7713 97.7128 11.9006 97.7635 12.0244C97.8142 12.1425 97.8423 12.2606 97.8423 12.3675C97.8423 12.5025 97.8029 12.6375 97.724 12.7669C97.6508 12.8962 97.5438 13.0312 97.4086 13.1662L96.9804 13.6106C96.9184 13.6725 96.8903 13.7456 96.8903 13.8356C96.8903 13.8806 96.8959 13.92 96.9072 13.965C96.9241 14.01 96.941 14.0437 96.9522 14.0775C97.0536 14.2631 97.2283 14.505 97.4762 14.7975C97.7297 15.09 98.0001 15.3881 98.293 15.6863C98.5972 15.9844 98.8901 16.26 99.1887 16.5131C99.4817 16.7606 99.7239 16.9294 99.9154 17.0306C99.9436 17.0419 99.9774 17.0587 100.017 17.0756C100.062 17.0925 100.107 17.0981 100.158 17.0981C100.253 17.0981 100.327 17.0644 100.389 17.0025L100.817 16.5806C100.958 16.44 101.093 16.3331 101.222 16.2656C101.352 16.1869 101.482 16.1475 101.622 16.1475C101.729 16.1475 101.842 16.17 101.966 16.2206C102.09 16.2713 102.22 16.3444 102.36 16.44L104.225 17.7619C104.371 17.8631 104.473 17.9812 104.535 18.1219C104.591 18.2625 104.625 18.4031 104.625 18.5606Z" stroke="white" stroke-width="1.5" stroke-miterlimit="10"/>
</svg>
