<svg width="20" height="20" viewBox="0 0 20 20" fill="none" xmlns="http://www.w3.org/2000/svg">
<g clip-path="url(#clip0_284_3677)">
<path d="M17.4842 2.36816H2.52363C1.13422 2.36816 0.00390625 3.49852 0.00390625 4.88789V10.5573C0.00390625 11.9466 1.13422 13.077 2.52363 13.077H17.4842C18.8736 13.077 20.0039 11.9467 20.0039 10.5573V4.88789C20.0039 3.49852 18.8736 2.36816 17.4842 2.36816ZM15.555 11.8959H4.45277V11.7186C4.45277 10.9914 5.04434 10.3998 5.77156 10.3998H14.2362C14.9634 10.3998 15.555 10.9914 15.555 11.7186V11.8959H15.555ZM18.8228 10.5573C18.8228 11.2954 18.2223 11.8959 17.4842 11.8959H16.7361V11.7186C16.7361 10.3401 15.6147 9.21863 14.2362 9.21863H5.77156C4.39309 9.21863 3.27164 10.3401 3.27164 11.7186V11.8959H2.52359C1.78547 11.8959 1.185 11.2954 1.185 10.5573V4.88789C1.185 4.14977 1.78547 3.5493 2.52359 3.5493H17.4842C18.2223 3.5493 18.8228 4.14977 18.8228 4.88789V10.5573Z" fill="#181D24"/>
<path d="M16.7738 4.6123H16.0204C15.6942 4.6123 15.4297 4.8768 15.4297 5.20303C15.4297 5.52926 15.6942 5.79375 16.0204 5.79375H16.7738C17.1 5.79375 17.3645 5.52926 17.3645 5.20303C17.3646 4.8768 17.1001 4.6123 16.7738 4.6123Z" fill="#181D24"/>
<path d="M13.9379 4.61328H13.1845C12.8582 4.61328 12.5938 4.87777 12.5938 5.204C12.5938 5.53024 12.8582 5.79473 13.1845 5.79473H13.9379C14.2641 5.79473 14.5286 5.53024 14.5286 5.204C14.5286 4.87777 14.2641 4.61328 13.9379 4.61328Z" fill="#181D24"/>
<path d="M10.0027 13.6738C9.67652 13.6738 9.41211 13.9382 9.41211 14.2644V17.0409C9.41211 17.367 9.67652 17.6314 10.0027 17.6314C10.3288 17.6314 10.5932 17.367 10.5932 17.0409V14.2644C10.5932 13.9382 10.3288 13.6738 10.0027 13.6738Z" fill="#181D24"/>
<path d="M13.4273 16.4503C12.879 16.4503 12.433 16.0043 12.433 15.4561V14.2644C12.433 13.9382 12.1686 13.6738 11.8425 13.6738C11.5164 13.6738 11.252 13.9382 11.252 14.2644V15.4561C11.252 16.6556 12.2278 17.6314 13.4273 17.6314C13.7534 17.6314 14.0179 17.367 14.0179 17.0409C14.0178 16.7147 13.7534 16.4503 13.4273 16.4503Z" fill="#181D24"/>
<path d="M8.16359 13.6738C7.83746 13.6738 7.57305 13.9382 7.57305 14.2644V15.4561C7.57305 16.0043 7.12707 16.4503 6.57883 16.4503C6.2527 16.4503 5.98828 16.7147 5.98828 17.0409C5.98828 17.367 6.2527 17.6314 6.57883 17.6314C7.77832 17.6314 8.75418 16.6555 8.75418 15.4561V14.2643C8.75418 13.9382 8.48977 13.6738 8.16359 13.6738Z" fill="#181D24"/>
</g>
<defs>
<clipPath id="clip0_284_3677">
<rect width="20" height="20" fill="white"/>
</clipPath>
</defs>
</svg>
