<svg width="21" height="22" viewBox="0 0 21 22" fill="none" xmlns="http://www.w3.org/2000/svg">
<path d="M19.878 13.5554L15.4949 11L19.878 8.44223C20.0737 8.32828 20.1425 8.07844 20.0322 7.88031L17.9489 4.13113C17.894 4.03184 17.8004 3.95941 17.6909 3.93055C17.5803 3.90086 17.4639 3.91832 17.3675 3.97773L13.0014 6.6482V1.41668C13.0014 1.18637 12.815 1 12.5847 1H8.41808C8.18776 1 8.0014 1.18637 8.0014 1.41668V6.6482L3.63534 3.9777C3.53933 3.9191 3.42335 3.90242 3.31429 3.92969C3.20522 3.95777 3.11206 4.02855 3.05632 4.12664L0.972998 7.77086C0.860693 7.96699 0.92581 8.21723 1.11909 8.33402L5.51851 10.9935L1.12476 13.5541C0.929052 13.6684 0.860263 13.9183 0.970537 14.1164L3.05386 17.8689C3.10878 17.9682 3.20198 18.0406 3.31183 18.0695C3.4221 18.0988 3.5389 18.0813 3.6353 18.0223L8.0014 15.3518V20.5833C8.0014 20.8136 8.18776 21 8.41808 21H12.5848C12.8151 21 13.0014 20.8136 13.0014 20.5833V15.3518L17.3675 18.0223C17.4639 18.0813 17.5807 18.0992 17.691 18.0695C17.8009 18.0406 17.894 17.9682 17.9489 17.8689L20.0323 14.1177C20.1425 13.9195 20.0737 13.6697 19.878 13.5554ZM17.4313 17.0844L12.802 14.2527C12.6742 14.1742 12.5127 14.1709 12.3809 14.245C12.2494 14.3186 12.1681 14.4578 12.1681 14.6084V20.1666H8.83476V14.6084C8.83476 14.4579 8.75339 14.3187 8.62194 14.245C8.4905 14.1706 8.32897 14.1742 8.20081 14.2528L3.57151 17.0844L1.8971 14.0689L6.54472 11.3601C6.67167 11.2861 6.75019 11.1505 6.75144 11.0033C6.75265 10.8564 6.67616 10.7197 6.55042 10.6436L1.89827 7.83145L3.56655 4.91273L8.20073 7.74723C8.3289 7.82617 8.49085 7.82941 8.62187 7.75496C8.75331 7.68133 8.83468 7.54215 8.83468 7.3916V1.83332H12.168V7.3916C12.168 7.54215 12.2494 7.68133 12.3808 7.75496C12.5123 7.82902 12.6742 7.82617 12.8019 7.74723L17.4312 4.91559L19.1057 7.92828L14.458 10.6403C14.3299 10.7148 14.2514 10.8519 14.2514 11C14.2514 11.1481 14.3303 11.2852 14.4581 11.3601L19.1057 14.0697L17.4313 17.0844Z" fill="#181D24" stroke="#181D24" stroke-width="0.4"/>
</svg>
