<svg width="24" height="24" viewBox="0 0 24 24" fill="none" xmlns="http://www.w3.org/2000/svg">
<g clip-path="url(#clip0_623_3722)">
<path d="M23.9998 0.703125C23.9998 0.314758 23.6849 0 23.2967 0H0.703125C0.314758 0 0 0.314758 0 0.703125V23.2956C0 23.684 0.314758 23.9987 0.703125 23.9987H19.7812C20.1694 23.9987 20.4844 23.684 20.4844 23.2956V21.2342C20.4844 20.8458 20.1694 20.5311 19.7812 20.5311C19.3929 20.5311 19.0781 20.8458 19.0781 21.2342V22.5925H1.40625V18.3356H8.48456C8.87292 18.3356 9.18768 18.0209 9.18768 17.6325C9.18768 17.2441 8.87292 16.9294 8.48456 16.9294H1.40625V1.40625H12.5601V8.34338C12.5601 8.73175 12.8751 9.04651 13.2632 9.04651C13.6516 9.04651 13.9664 8.73175 13.9664 8.34338V1.40625H22.5936L22.5938 14.2495H14.0627V12.5623C14.0627 12.174 13.7477 11.8592 13.3596 11.8592C12.9712 11.8592 12.6564 12.174 12.6564 12.5623V14.9526C12.6564 15.3409 12.9712 15.6557 13.3596 15.6557H19.1715V17.0145C19.1715 17.4027 19.4865 17.7177 19.8746 17.7177C20.263 17.7177 20.5778 17.4027 20.5778 17.0145V15.6557H23.2969C23.4833 15.6557 23.6622 15.5815 23.794 15.4497C23.9258 15.3179 24 15.139 24 14.9526L23.9998 0.703125Z" fill="#918675"/>
</g>
<defs>
<clipPath id="clip0_623_3722">
<rect width="24" height="24" fill="white"/>
</clipPath>
</defs>
</svg>
