<svg width="24" height="24" viewBox="0 0 24 24" fill="none" xmlns="http://www.w3.org/2000/svg">
<g clip-path="url(#clip0_623_3726)">
<path d="M21.8448 10.875H10.9926C8.51026 10.875 6.09422 10.4161 3.79763 9.51009V2.57812C3.79763 1.93195 4.32333 1.40625 4.96951 1.40625H5.90701C6.55318 1.40625 7.07888 1.93195 7.07888 2.57812V2.91075C5.99809 3.21764 5.20388 4.2128 5.20388 5.39062V6.32812C5.20388 6.71644 5.51869 7.03125 5.90701 7.03125H9.65701C10.0453 7.03125 10.3601 6.71644 10.3601 6.32812V5.39062C10.3601 4.2128 9.56593 3.21769 8.48513 2.91075V2.57812C8.48513 1.15655 7.32858 0 5.90701 0H4.96951C3.54793 0 2.39138 1.15655 2.39138 2.57812V9.01364C1.50221 8.91544 0.611678 9.39356 0.229834 10.2525C0.000990674 10.7672 -0.0136343 11.3404 0.188538 11.8663C0.390709 12.3923 0.785584 12.808 1.30041 13.0369C1.35155 13.0596 1.40293 13.0817 1.45416 13.104V15.7969C1.45416 17.9701 2.55549 19.8908 4.22921 21.0307L2.97849 22.9068C2.76305 23.2299 2.85038 23.6664 3.17349 23.8818C3.2934 23.9618 3.42882 24 3.56288 24C3.79008 24 4.01307 23.89 4.14854 23.6868L5.47904 21.691C6.19318 21.971 6.97004 22.125 7.78224 22.125H16.2197C17.0319 22.125 17.8088 21.971 18.5229 21.691L19.8535 23.6868C19.989 23.89 20.2119 24 20.4391 24C20.5732 24 20.7087 23.9618 20.8285 23.8818C21.1517 23.6664 21.239 23.2299 21.0235 22.9068L19.7728 21.0308C21.4465 19.8909 22.5479 17.9702 22.5479 15.7969V14.9729C23.3663 14.6827 23.9542 13.9011 23.9542 12.9845C23.9542 11.8213 23.0079 10.875 21.8448 10.875ZM7.78201 4.21875C8.42818 4.21875 8.95388 4.74445 8.95388 5.39062V5.625H6.61013V5.39062C6.61013 4.74445 7.13583 4.21875 7.78201 4.21875ZM21.1417 15.7969C21.1417 18.5108 18.9337 20.7188 16.2198 20.7188H7.78229C5.06837 20.7188 2.86041 18.5108 2.86041 15.7969V13.6661C5.46704 14.6139 8.19507 15.0938 10.9926 15.0938H21.1417V15.7969ZM21.8448 13.6875H10.9926C7.82963 13.6875 4.76091 13.0363 1.87158 11.7518C1.51735 11.5944 1.35732 11.178 1.51487 10.8237C1.63107 10.5622 1.88902 10.4067 2.15879 10.4067C2.25394 10.4067 2.3506 10.4261 2.44294 10.467C5.15143 11.6709 8.02791 12.2813 10.9926 12.2813H21.8448C22.2325 12.2813 22.5479 12.5967 22.5479 12.9844C22.5479 13.3721 22.2325 13.6875 21.8448 13.6875Z" fill="#918675"/>
</g>
<defs>
<clipPath id="clip0_623_3726">
<rect width="24" height="24" fill="white"/>
</clipPath>
</defs>
</svg>
