<svg width="24" height="24" viewBox="0 0 24 24" fill="none" xmlns="http://www.w3.org/2000/svg">
<path d="M21.2707 10.7668V4.0937C21.2707 2.73677 20.1668 1.63281 18.8099 1.63281H5.19005C3.83311 1.63281 2.72925 2.73677 2.72925 4.0937V10.7668C1.16569 11.143 0 12.5523 0 14.2297V19.207C0 19.6019 0.320109 19.922 0.714984 19.922H2.7292V21.6513C2.7292 22.0461 3.04931 22.3662 3.44419 22.3662C3.83906 22.3662 4.15917 22.0461 4.15917 21.6513V19.922H19.8407V21.6513C19.8407 22.0461 20.1608 22.3662 20.5557 22.3662C20.9506 22.3662 21.2707 22.0461 21.2707 21.6513V19.922H23.2849C23.6798 19.922 23.9999 19.6019 23.9999 19.207V14.2297C24 12.5523 22.8343 11.143 21.2707 10.7668ZM4.15922 4.0937C4.15922 3.5253 4.62169 3.06283 5.19005 3.06283H18.8099C19.3783 3.06283 19.8408 3.5253 19.8408 4.0937V10.6675H17.478V9.53955C17.478 7.67064 15.9576 6.1502 14.0887 6.1502H9.91139C8.04248 6.1502 6.52205 7.67069 6.52205 9.53955V10.6675H4.15922V4.0937ZM16.0481 9.53955V10.6675H7.95192V9.53955C7.95192 8.45913 8.83087 7.58017 9.9113 7.58017H14.0887C15.169 7.58012 16.0481 8.45917 16.0481 9.53955ZM1.42997 18.492V14.2297C1.42997 13.054 2.38645 12.0975 3.56212 12.0975H20.4378C21.6135 12.0975 22.5699 13.054 22.5699 14.2297V18.492H1.42997Z" fill="#918675"/>
</svg>
