<svg width="20" height="20" viewBox="0 0 20 20" fill="none" xmlns="http://www.w3.org/2000/svg">
<g clip-path="url(#clip0_284_3571)">
<path d="M1.84117 4.30988H10.0875C10.3645 6.07293 11.8919 7.44789 13.7656 7.44789H15.6484C15.972 7.44789 16.2344 7.18555 16.2344 6.86195V6.1927H19.4141C19.7377 6.1927 20 5.93035 20 5.60676C20 5.28316 19.7377 5.02082 19.4141 5.02082H16.2344V2.42707H19.4141C19.7377 2.42707 20 2.16473 20 1.84113C20 1.51754 19.7377 1.2552 19.4141 1.2552H16.2344V0.585938C16.2344 0.262344 15.972 0 15.6484 0H13.7656C11.8932 0 10.3647 1.37371 10.0875 3.13801H1.84117C0.8325 3.13801 0 3.9532 0 4.97918V13.138C0 14.1674 0.836094 14.9792 1.84117 14.9792H2.51043V17.5312C2.51043 17.8548 2.77277 18.1172 3.09637 18.1172H4.4641C4.72789 19.1964 5.70262 20 6.86203 20C8.02145 20 8.99613 19.1964 9.25992 18.1172H12.623C12.8868 19.1964 13.8615 20 15.0209 20C16.1803 20 17.155 19.1964 17.4188 18.1172H19.4141C19.7377 18.1172 20 17.8548 20 17.5312V15.9622C20 14.0819 18.4702 12.5521 16.5898 12.5521H16.5187L14.2876 10.3209C13.7028 9.73613 12.9252 9.41406 12.0981 9.41406H4.35156C3.34289 9.41406 2.51039 10.2292 2.51039 11.2552V13.8073H1.84117C1.47559 13.8073 1.17188 13.5117 1.17188 13.138V4.97918C1.17188 4.61457 1.46664 4.30988 1.84117 4.30988ZM13.7656 1.17188H15.0625V6.27605H13.7656C12.334 6.27605 11.2135 5.11043 11.2135 3.72398C11.2135 2.31445 12.354 1.17188 13.7656 1.17188ZM6.86199 18.8281C6.14688 18.8281 5.56512 18.2463 5.56512 17.5312C5.56512 16.8162 6.14691 16.2344 6.86199 16.2344C7.57707 16.2344 8.15883 16.8161 8.15883 17.5312C8.15883 18.2464 7.57707 18.8281 6.86199 18.8281ZM15.0208 18.8281C14.3057 18.8281 13.7239 18.2463 13.7239 17.5312C13.7239 16.8162 14.3057 16.2344 15.0208 16.2344C15.7359 16.2344 16.3177 16.8161 16.3177 17.5312C16.3177 18.2464 15.7359 18.8281 15.0208 18.8281ZM9.95836 10.5859H12.0981C12.6122 10.5859 13.0955 10.7861 13.4589 11.1495L14.8615 12.5521H9.95836V10.5859ZM3.6823 11.2552C3.6823 10.8906 3.97707 10.5859 4.3516 10.5859H8.78648V12.5521H3.6823V11.2552ZM3.6823 13.7239H16.5898C17.8241 13.7239 18.8281 14.728 18.8281 15.9622V16.9453H17.4195C17.156 15.866 16.1807 15.0625 15.0208 15.0625C13.8613 15.0625 12.8861 15.8659 12.6223 16.9453H9.26047C8.99676 15.8659 8.02137 15.0625 6.86137 15.0625C5.70219 15.0625 4.72711 15.8658 4.46344 16.9453H3.6823V13.7239Z" fill="#181D24"/>
</g>
<defs>
<clipPath id="clip0_284_3571">
<rect width="20" height="20" fill="white"/>
</clipPath>
</defs>
</svg>
