<svg width="20" height="20" viewBox="0 0 20 20" fill="none" xmlns="http://www.w3.org/2000/svg">
<g clip-path="url(#clip0_284_3889)">
<path d="M5.1408 2.51529C4.72209 2.09654 4.72209 1.41896 5.1408 1.00021C5.36963 0.771387 5.36963 0.400449 5.1408 0.171621C4.91201 -0.057207 4.54104 -0.057207 4.31221 0.171621C3.4376 1.04623 3.4376 2.46928 4.31221 3.34389C4.73092 3.7626 4.73092 4.44022 4.31221 4.85896C4.08338 5.08779 4.08338 5.45873 4.31221 5.68756C4.541 5.91639 4.91201 5.91639 5.1408 5.68756C6.01541 4.81295 6.01541 3.3899 5.1408 2.51529Z" fill="#181D24"/>
<path d="M8.65643 2.51529C8.23772 2.09654 8.23772 1.41896 8.65643 1.00021C8.88525 0.771387 8.88525 0.400449 8.65643 0.171621C8.42764 -0.057207 8.05666 -0.057207 7.82783 0.171621C6.95322 1.04623 6.95322 2.46928 7.82783 3.34389C8.24654 3.7626 8.24654 4.44022 7.82783 4.85896C7.599 5.08779 7.599 5.45873 7.82783 5.68756C8.05662 5.91639 8.42768 5.91639 8.65643 5.68756C9.53104 4.81295 9.53104 3.3899 8.65643 2.51529Z" fill="#181D24"/>
<path d="M12.1721 2.51529C11.7533 2.09654 11.7533 1.41896 12.1721 1.00021C12.4009 0.771387 12.4009 0.400449 12.1721 0.171621C11.9433 -0.057207 11.5722 -0.057207 11.3435 0.171621C10.4688 1.04623 10.4688 2.46928 11.3435 3.34389C11.7622 3.7626 11.7622 4.44022 11.3435 4.85896C11.1146 5.08779 11.1146 5.45873 11.3435 5.68756C11.5722 5.91639 11.9433 5.91639 12.1721 5.68756C13.0467 4.81295 13.0467 3.3899 12.1721 2.51529Z" fill="#181D24"/>
<path d="M14.7267 15.2732C17.6344 15.2732 20 12.9076 20 9.99996C20 9.03074 19.2115 8.24219 18.2422 8.24219H16.4732C16.4806 8.04738 16.4844 7.85203 16.4844 7.65625C16.4844 7.33266 16.2221 7.07031 15.8985 7.07031H0.586548C0.262954 7.07031 0.000610276 7.33266 0.000610276 7.65625C0.000610276 10.8591 1.02846 14.2189 3.17057 16.4841H0.586548C0.152056 16.4841 -0.132241 16.9426 0.0624462 17.332C0.463462 18.1339 1.07889 18.8071 1.84237 19.2788C2.60561 19.7504 3.48303 19.9996 4.37971 19.9996H12.1054C13.9327 19.9996 15.6046 18.968 16.4226 17.332C16.6169 16.9434 16.334 16.4841 15.8985 16.4841H13.3144C13.6616 16.117 13.9868 15.7121 14.2867 15.2732H14.7267V15.2732ZM16.3826 9.41402H18.2423C18.5653 9.41402 18.8282 9.67687 18.8282 9.99996C18.8282 12.1732 17.129 13.9568 14.9894 14.0928C15.7219 12.6754 16.1892 11.0751 16.3826 9.41402ZM14.7907 17.6482C14.1106 18.3873 13.1474 18.8278 12.1053 18.8278H4.37971C3.33772 18.8278 2.37456 18.3873 1.69444 17.6482C2.21073 17.6482 14.5113 17.6482 14.7907 17.6482ZM11.5688 16.4841H4.91628C2.7585 14.8517 1.33143 11.6758 1.18491 8.23441L15.3001 8.24223C15.1707 11.283 13.9585 14.6762 11.5688 16.4841Z" fill="#181D24"/>
</g>
<defs>
<clipPath id="clip0_284_3889">
<rect width="20" height="20" fill="white"/>
</clipPath>
</defs>
</svg>
