<svg width="22" height="22" viewBox="0 0 22 22" fill="none" xmlns="http://www.w3.org/2000/svg">
<path d="M2.70472 21C2.59977 20.9999 2.4985 20.9613 2.42007 20.8916C2.34163 20.8218 2.29148 20.7258 2.2791 20.6216L1.00285 9.77406C0.995891 9.71396 1.00171 9.65307 1.01994 9.59537C1.03816 9.53768 1.06837 9.48449 1.10858 9.43928C1.1488 9.39408 1.19812 9.35789 1.2533 9.33308C1.30848 9.30826 1.36828 9.2954 1.42879 9.29531H2.06691C2.09443 9.29531 2.12168 9.28989 2.14711 9.27934C2.17253 9.2688 2.19563 9.25335 2.21507 9.23388C2.23452 9.2144 2.24993 9.19128 2.26044 9.16584C2.27094 9.14041 2.27633 9.11315 2.27629 9.08562V1.42875C2.27637 1.31512 2.32152 1.20616 2.40184 1.12578C2.48217 1.0454 2.59109 1.00017 2.70472 1L19.2953 1C19.409 1.00017 19.5179 1.0454 19.5982 1.12578C19.6785 1.20616 19.7237 1.31512 19.7238 1.42875V9.085C19.7237 9.11255 19.7291 9.13983 19.7397 9.16529C19.7502 9.19075 19.7656 9.21388 19.7851 9.23336C19.8046 9.25284 19.8277 9.26829 19.8532 9.27881C19.8786 9.28933 19.9059 9.29473 19.9335 9.29469H20.5713C20.6318 9.29477 20.6916 9.30764 20.7468 9.33245C20.802 9.35726 20.8513 9.39346 20.8915 9.43866C20.9317 9.48386 20.9619 9.53705 20.9801 9.59475C20.9984 9.65244 21.0042 9.71334 20.9972 9.77344L19.721 20.6216C19.7086 20.7258 19.6584 20.8218 19.58 20.8916C19.5016 20.9613 19.4003 20.9999 19.2953 21H2.70472ZM2.1466 10.1525C2.11697 10.1524 2.08765 10.1586 2.06058 10.1706C2.03351 10.1827 2.0093 10.2003 1.98954 10.2224C1.96979 10.2445 1.95494 10.2705 1.94598 10.2987C1.93701 10.327 1.93414 10.3568 1.93754 10.3862L3.06254 19.9578C3.06858 20.0088 3.0931 20.0558 3.13146 20.0898C3.16981 20.1239 3.21934 20.1428 3.27066 20.1428H18.7275C18.7789 20.1428 18.8284 20.1239 18.8667 20.0898C18.9051 20.0558 18.9296 20.0088 18.9357 19.9578L20.0625 10.3862C20.0659 10.3569 20.0631 10.3272 20.0542 10.299C20.0453 10.2708 20.0305 10.2448 20.0108 10.2227C19.9912 10.2007 19.9671 10.183 19.9401 10.1709C19.9132 10.1588 19.884 10.1525 19.8544 10.1525H2.1466ZM14.5094 6.10469C15.331 6.11015 16.1214 6.41979 16.728 6.97382C17.3347 7.52785 17.7146 8.28699 17.7944 9.10469C17.7992 9.15672 17.8232 9.2051 17.8617 9.24036C17.9003 9.27562 17.9506 9.29522 18.0028 9.29531H18.6563C18.6838 9.29531 18.7111 9.28989 18.7365 9.27934C18.7619 9.2688 18.785 9.25335 18.8044 9.23388C18.8239 9.2144 18.8393 9.19128 18.8498 9.16584C18.8603 9.14041 18.8657 9.11315 18.8657 9.08562V4.61906C18.8657 4.56353 18.8436 4.51028 18.8043 4.47101C18.7651 4.43175 18.7118 4.40969 18.6563 4.40969H3.34379C3.28826 4.40969 3.235 4.43175 3.19574 4.47101C3.15647 4.51028 3.13441 4.56353 3.13441 4.61906V9.08562C3.13437 9.11315 3.13976 9.14041 3.15026 9.16584C3.16076 9.19128 3.17618 9.2144 3.19562 9.23388C3.21507 9.25335 3.23817 9.2688 3.26359 9.27934C3.28901 9.28989 3.31626 9.29531 3.34379 9.29531H4.6466C4.69953 9.29522 4.75047 9.27515 4.78923 9.23911C4.828 9.20307 4.85172 9.15372 4.85566 9.10094C4.98379 7.33687 6.19941 6.10469 7.81035 6.10469C7.92406 6.10469 8.03311 6.14986 8.11352 6.23027C8.19393 6.31067 8.2391 6.41973 8.2391 6.53344C8.2391 6.64715 8.19393 6.7562 8.11352 6.83661C8.03311 6.91702 7.92406 6.96219 7.81035 6.96219C6.42316 6.96219 5.81566 8.04781 5.70941 9.06406C5.70639 9.09325 5.70954 9.12275 5.71863 9.15064C5.72773 9.17854 5.74259 9.20422 5.76223 9.22602C5.78188 9.24781 5.80588 9.26524 5.83269 9.27718C5.85949 9.28911 5.8885 9.29529 5.91785 9.29531H7.83722C7.89014 9.29529 7.94109 9.27523 7.97982 9.23917C8.01855 9.20311 8.04218 9.15372 8.04597 9.10094C8.1741 7.33687 9.38972 6.10469 11.001 6.10469C11.1147 6.10469 11.2237 6.14986 11.3041 6.23027C11.3846 6.31067 11.4297 6.41973 11.4297 6.53344C11.4297 6.64715 11.3846 6.7562 11.3041 6.83661C11.2237 6.91702 11.1147 6.96219 11.001 6.96219C9.61378 6.96219 9.00597 8.04781 8.89972 9.06406C8.89671 9.09325 8.89985 9.12275 8.90895 9.15064C8.91805 9.17854 8.9329 9.20422 8.95254 9.22602C8.97219 9.24781 8.99619 9.26524 9.023 9.27718C9.0498 9.28911 9.07882 9.29529 9.10816 9.29531H11.0172C11.0695 9.29522 11.1198 9.27562 11.1584 9.24036C11.1969 9.2051 11.2209 9.15672 11.2257 9.10469C11.3054 8.28721 11.6852 7.52824 12.2916 6.97424C12.898 6.42023 13.6881 6.11046 14.5094 6.10469ZM14.5094 6.96219C13.9242 6.96623 13.3597 7.17954 12.918 7.56355C12.4763 7.94756 12.1866 8.47693 12.1013 9.05594C12.0969 9.08568 12.099 9.11601 12.1075 9.14487C12.1159 9.17372 12.1304 9.20043 12.1501 9.22317C12.1697 9.24591 12.194 9.26415 12.2214 9.27666C12.2487 9.28916 12.2784 9.29563 12.3085 9.29562H16.7107C16.7407 9.29563 16.7704 9.28916 16.7978 9.27666C16.8251 9.26415 16.8494 9.24591 16.8691 9.22317C16.8887 9.20043 16.9033 9.17372 16.9117 9.14487C16.9201 9.11601 16.9222 9.08568 16.9178 9.05594C16.8325 8.47687 16.5428 7.94747 16.101 7.56345C15.6593 7.17943 15.0947 6.96615 14.5094 6.96219ZM8.44754 1.8575C8.42003 1.85746 8.39278 1.86285 8.36736 1.87335C8.34194 1.88386 8.31884 1.89928 8.29939 1.91873C8.27994 1.93818 8.26452 1.96128 8.25401 1.9867C8.24351 2.01212 8.23812 2.03937 8.23816 2.06687V3.34375C8.23816 3.39931 8.26021 3.4526 8.29947 3.49191C8.33872 3.53123 8.39198 3.55335 8.44754 3.55344H18.6563C18.7118 3.55335 18.7651 3.53123 18.8044 3.49191C18.8436 3.4526 18.8657 3.39931 18.8657 3.34375V2.06687C18.8657 2.03937 18.8603 2.01212 18.8498 1.9867C18.8393 1.96128 18.8239 1.93818 18.8044 1.91873C18.785 1.89928 18.7619 1.88386 18.7365 1.87335C18.711 1.86285 18.6838 1.85746 18.6563 1.8575H8.44754ZM5.89535 1.8575C5.86784 1.85746 5.8406 1.86285 5.81518 1.87335C5.78975 1.88386 5.76666 1.89928 5.74721 1.91873C5.72776 1.93818 5.71234 1.96128 5.70183 1.9867C5.69132 2.01212 5.68593 2.03937 5.68597 2.06687V3.34375C5.68597 3.39931 5.70802 3.4526 5.74728 3.49191C5.78654 3.53123 5.83979 3.55335 5.89535 3.55344H7.1716C7.22716 3.55335 7.28041 3.53123 7.31967 3.49191C7.35892 3.4526 7.38097 3.39931 7.38097 3.34375V2.06687C7.38101 2.03937 7.37563 2.01212 7.36512 1.9867C7.35461 1.96128 7.33919 1.93818 7.31974 1.91873C7.30029 1.89928 7.27719 1.88386 7.25177 1.87335C7.22635 1.86285 7.19911 1.85746 7.1716 1.8575H5.89535ZM3.34285 1.8575C3.31534 1.85746 3.2881 1.86285 3.26268 1.87335C3.23725 1.88386 3.21416 1.89928 3.19471 1.91873C3.17526 1.93818 3.15983 1.96128 3.14933 1.9867C3.13882 2.01212 3.13343 2.03937 3.13347 2.06687V3.34375C3.13347 3.39931 3.15552 3.4526 3.19478 3.49191C3.23404 3.53123 3.28729 3.55335 3.34285 3.55344H4.6191C4.67466 3.55335 4.72791 3.53123 4.76717 3.49191C4.80642 3.4526 4.82847 3.39931 4.82847 3.34375V2.06687C4.82851 2.03937 4.82313 2.01212 4.81262 1.9867C4.80211 1.96128 4.78669 1.93818 4.76724 1.91873C4.74779 1.89928 4.72469 1.88386 4.69927 1.87335C4.67385 1.86285 4.64661 1.85746 4.6191 1.8575H3.34285Z" fill="#181D24" stroke="#181D24" stroke-width="0.2"/>
<path d="M5.25687 12.7052C5.14316 12.7052 5.03411 12.66 4.9537 12.5796C4.8733 12.4992 4.82813 12.3901 4.82812 12.2764C4.82812 12.1627 4.8733 12.0536 4.9537 11.9732C5.03411 11.8928 5.14316 11.8477 5.25687 11.8477H16.7425C16.8562 11.8477 16.9653 11.8928 17.0457 11.9732C17.1261 12.0536 17.1713 12.1627 17.1713 12.2764C17.1713 12.3901 17.1261 12.4992 17.0457 12.5796C16.9653 12.66 16.8562 12.7052 16.7425 12.7052H5.25687Z" fill="#181D24" stroke="#181D24" stroke-width="0.2"/>
</svg>
