<svg width="20" height="20" viewBox="0 0 20 20" fill="none" xmlns="http://www.w3.org/2000/svg">
<g clip-path="url(#clip0_284_3761)">
<path d="M4.97746 9.86447C3.67148 9.86447 2.39031 9.33877 1.45277 8.41529C0.515938 7.49248 0 6.26803 0 4.96748C0 3.53619 0.636602 2.18119 1.7466 1.24994C2.8898 0.290839 4.38387 -0.111231 5.84598 0.146699L15.7268 1.89045C16.0068 1.93986 16.2109 2.18314 16.2109 2.46748V7.46748C16.2109 7.75178 16.0068 7.9951 15.7268 8.04447C13.3327 8.46701 11.5037 8.79088 10.1018 9.03916C5.44867 9.86314 5.44867 9.86314 5.1127 9.86353C5.09402 9.86353 5.07398 9.86357 5.05086 9.86389C5.02641 9.86428 5.00191 9.86447 4.97746 9.86447ZM4.97555 1.24228C4.07871 1.24228 3.20312 1.55764 2.49984 2.14768C1.6559 2.85572 1.17188 3.8835 1.17188 4.96748C1.17188 5.95166 1.56367 6.87963 2.27512 7.58041C3.00809 8.30232 4.01348 8.70748 5.0341 8.69213C5.06355 8.69174 5.08828 8.6917 5.11129 8.69166C5.34066 8.69139 5.43012 8.67631 9.89742 7.88521C11.2035 7.65392 12.8801 7.35705 15.039 6.97588V2.95904L5.6423 1.30076C5.42035 1.26158 5.19719 1.24228 4.97555 1.24228Z" fill="#181D24"/>
<path d="M5.00195 6.80371C3.98961 6.80371 3.16602 5.98012 3.16602 4.96777C3.16602 3.95543 3.98961 3.13184 5.00195 3.13184C6.0143 3.13184 6.83789 3.95543 6.83789 4.96777C6.83789 5.98012 6.0143 6.80371 5.00195 6.80371ZM5.00195 4.30371C4.63578 4.30371 4.33789 4.6016 4.33789 4.96777C4.33789 5.33395 4.63578 5.63184 5.00195 5.63184C5.36813 5.63184 5.66602 5.33395 5.66602 4.96777C5.66602 4.6016 5.36813 4.30371 5.00195 4.30371Z" fill="#181D24"/>
<path d="M19.4121 9.3037C19.3505 9.3037 19.2885 9.29398 19.2286 9.27421L15.4395 8.02421C15.1993 7.94499 15.0371 7.72062 15.0371 7.46777V2.46777C15.0371 2.21488 15.1993 1.99054 15.4395 1.91132L19.2286 0.661323C19.407 0.602455 19.6031 0.632768 19.7554 0.742963C19.9078 0.853119 19.998 1.02972 19.998 1.21777V8.71777C19.998 8.90577 19.9078 9.08238 19.7554 9.19257C19.6543 9.26573 19.5338 9.3037 19.4121 9.3037ZM16.209 7.04406L18.8262 7.90745V2.02804L16.209 2.89144V7.04406Z" fill="#181D24"/>
<path d="M7.54976 16.8039C6.51331 16.8039 5.63218 16.0627 5.45456 15.0417L4.4696 9.37891C4.44022 9.20988 4.48636 9.03645 4.59593 8.90437C4.7055 8.77234 4.86741 8.69492 5.03897 8.69262C5.35378 8.68836 5.40276 8.68113 6.78698 8.43461C7.11214 8.37668 7.50882 8.30605 7.99745 8.2198C8.15085 8.19285 8.30878 8.22789 8.4362 8.31746C8.56366 8.40703 8.65019 8.54371 8.67667 8.69727L9.64554 14.3158C9.75237 14.9353 9.58136 15.5664 9.17636 16.0472C8.77136 16.528 8.17847 16.8039 7.54976 16.8039ZM5.73339 9.80621L6.60909 14.8409C6.68882 15.2993 7.0844 15.632 7.54976 15.632C7.83202 15.632 8.09819 15.5082 8.28003 15.2923C8.46186 15.0764 8.53866 14.7931 8.49069 14.515L7.62183 9.47641C7.38624 9.5182 7.17772 9.55535 6.99245 9.58836C6.35917 9.70109 5.98827 9.76715 5.73339 9.80621Z" fill="#181D24"/>
<path d="M10.9373 19.9288C9.95059 19.9288 9.02277 19.5466 8.32168 18.8507C7.61551 18.1498 7.22656 17.2065 7.22656 16.1947C7.22656 15.8711 7.48891 15.6088 7.8125 15.6088C8.13609 15.6088 8.39844 15.8711 8.39844 16.1947C8.39844 16.8918 8.66438 17.5397 9.14723 18.019C9.62707 18.4953 10.2622 18.7569 10.9375 18.7569C10.944 18.7569 10.9505 18.7569 10.957 18.7568C12.3462 18.7464 13.4766 17.5899 13.4766 16.1787V14.1865C13.4766 13.088 14.3703 12.1943 15.4688 12.1943C16.5672 12.1943 17.4609 13.088 17.4609 14.1865V19.3428C17.4609 19.6664 17.1986 19.9287 16.875 19.9287C16.5514 19.9287 16.2891 19.6664 16.2891 19.3428V14.1865C16.2891 13.7342 15.9211 13.3662 15.4688 13.3662C15.0164 13.3662 14.6484 13.7342 14.6484 14.1865V16.1787C14.6484 18.2312 12.9964 19.9135 10.9657 19.9287C10.9563 19.9288 10.9467 19.9288 10.9373 19.9288Z" fill="#181D24"/>
</g>
<defs>
<clipPath id="clip0_284_3761">
<rect width="20" height="20" fill="white"/>
</clipPath>
</defs>
</svg>
