<svg width="20" height="20" viewBox="0 0 20 20" fill="none" xmlns="http://www.w3.org/2000/svg">
<path d="M17.4555 2.41508C17.1894 2.14929 16.8286 2 16.4525 2C16.0763 2 15.7156 2.14929 15.4494 2.41508L14.0311 3.83339C13.7663 4.1002 13.6171 4.46051 13.6158 4.83643V5.05088H12.4812V4.83643C12.4799 4.46051 12.3307 4.1002 12.0659 3.83339L10.6476 2.41508C10.3814 2.14929 10.0207 2 9.64455 2C9.26841 2 8.90766 2.14929 8.64151 2.41508L7.2232 3.83339C6.95786 4.09985 6.80859 4.46039 6.80792 4.83643V5.05088H5.67326V4.83643C5.67259 4.46039 5.52332 4.09985 5.25798 3.83339L3.83966 2.41508C3.57352 2.14929 3.21276 2 2.83663 2C2.4605 2 2.09974 2.14929 1.8336 2.41508L0.415283 3.83339C0.149944 4.09985 0.000673727 4.46039 0 4.83643V17.2484C0.000600123 17.6244 0.150222 17.9848 0.416078 18.2506C0.681934 18.5165 1.04234 18.6661 1.41832 18.6667H4.25495C4.63092 18.6661 4.99133 18.5165 5.25718 18.2506C5.52304 17.9848 5.67266 17.6244 5.67326 17.2484V16.3974H6.80792V17.2484C6.80852 17.6244 6.95814 17.9848 7.22399 18.2506C7.48985 18.5165 7.85026 18.6661 8.22623 18.6667H11.0629C11.4388 18.6661 11.7992 18.5165 12.0651 18.2506C12.331 17.9848 12.4806 17.6244 12.4812 17.2484V16.3974H13.6158V17.2484C13.6164 17.6244 13.7661 17.9848 14.0319 18.2506C14.2978 18.5165 14.6582 18.6661 15.0341 18.6667H17.8708C18.2468 18.6661 18.6072 18.5165 18.873 18.2506C19.1389 17.9848 19.2885 17.6244 19.2891 17.2484V4.83643C19.2878 4.46051 19.1386 4.1002 18.8738 3.83339L17.4555 2.41508ZM12.4812 9.58949H13.6158V11.8588H12.4812V9.58949ZM13.6158 6.18553V8.45483H12.4812V6.18553H13.6158ZM5.67326 9.58949H6.80792V11.8588H5.67326V9.58949ZM6.80792 6.18553V8.45483H5.67326V6.18553H6.80792ZM4.53861 17.2484C4.53861 17.3236 4.50872 17.3958 4.45553 17.449C4.40233 17.5022 4.33018 17.5321 4.25495 17.5321H1.41832C1.34308 17.5321 1.27093 17.5022 1.21774 17.449C1.16454 17.3958 1.13465 17.3236 1.13465 17.2484V4.83643C1.13489 4.76122 1.16463 4.6891 1.21748 4.63559L2.6358 3.21728C2.66215 3.19086 2.69345 3.1699 2.72791 3.1556C2.76238 3.1413 2.79932 3.13394 2.83663 3.13394C2.87394 3.13394 2.91089 3.1413 2.94535 3.1556C2.97981 3.1699 3.01112 3.19086 3.03747 3.21728L4.45578 4.63559C4.50863 4.6891 4.53838 4.76122 4.53861 4.83643V17.2484ZM5.67326 15.2628V12.9934H6.80792V15.2628H5.67326ZM11.3465 17.2484C11.3465 17.3236 11.3166 17.3958 11.2634 17.449C11.2102 17.5022 11.1381 17.5321 11.0629 17.5321H8.22623C8.151 17.5321 8.07885 17.5022 8.02565 17.449C7.97245 17.3958 7.94257 17.3236 7.94257 17.2484V4.83643C7.9428 4.76122 7.97255 4.6891 8.0254 4.63559L9.44371 3.21728C9.47006 3.19086 9.50137 3.1699 9.53583 3.1556C9.57029 3.1413 9.60724 3.13394 9.64455 3.13394C9.68186 3.13394 9.7188 3.1413 9.75327 3.1556C9.78773 3.1699 9.81903 3.19086 9.84538 3.21728L11.2637 4.63559C11.2901 4.66195 11.311 4.69326 11.3252 4.72773C11.3394 4.7622 11.3467 4.79914 11.3465 4.83643V17.2484ZM12.4812 15.2628V12.9934H13.6158V15.2628H12.4812ZM18.1544 17.2484C18.1544 17.3236 18.1246 17.3958 18.0714 17.449C18.0182 17.5022 17.946 17.5321 17.8708 17.5321H15.0341C14.9589 17.5321 14.8868 17.5022 14.8336 17.449C14.7804 17.3958 14.7505 17.3236 14.7505 17.2484V4.83643C14.7504 4.79914 14.7576 4.7622 14.7718 4.72773C14.786 4.69326 14.8069 4.66195 14.8333 4.63559L16.2516 3.21728C16.305 3.1642 16.3772 3.13441 16.4525 3.13441C16.5277 3.13441 16.5999 3.1642 16.6533 3.21728L18.0716 4.63559C18.098 4.66195 18.1189 4.69326 18.1331 4.72773C18.1473 4.7622 18.1546 4.79914 18.1544 4.83643V17.2484Z" fill="#181D24"/>
</svg>
