<svg width="21" height="20" viewBox="0 0 21 20" fill="none" xmlns="http://www.w3.org/2000/svg">
<g clip-path="url(#clip0_284_3663)">
<path d="M18.7402 17.1484H2.25586C1.2866 17.1484 0.498047 16.3599 0.498047 15.3906V15.2344C0.498047 14.2651 1.2866 13.4766 2.25586 13.4766H18.7402C19.7095 13.4766 20.498 14.2651 20.498 15.2344V15.3906C20.498 16.3599 19.7095 17.1484 18.7402 17.1484ZM2.25586 14.6484C1.93277 14.6484 1.66992 14.9113 1.66992 15.2344V15.3906C1.66992 15.7137 1.93277 15.9766 2.25586 15.9766H18.7402C19.0633 15.9766 19.3262 15.7137 19.3262 15.3906V15.2344C19.3262 14.9113 19.0633 14.6484 18.7402 14.6484H2.25586Z" fill="#181D24"/>
<path d="M12.998 4.02344H7.99805C7.67445 4.02344 7.41211 3.76109 7.41211 3.4375C7.41211 3.11391 7.67445 2.85156 7.99805 2.85156H12.998C13.3216 2.85156 13.584 3.11391 13.584 3.4375C13.584 3.76109 13.3216 4.02344 12.998 4.02344Z" fill="#181D24"/>
<path d="M11.7461 6.52344H9.24609C8.9225 6.52344 8.66016 6.26109 8.66016 5.9375V3.4375C8.66016 3.11391 8.9225 2.85156 9.24609 2.85156H11.7461C12.0697 2.85156 12.332 3.11391 12.332 3.4375V5.9375C12.332 6.26109 12.0697 6.52344 11.7461 6.52344ZM9.83203 5.35156H11.1602V4.02344H9.83203V5.35156Z" fill="#181D24"/>
<path d="M18.625 14.6484H2.375C2.05141 14.6484 1.78906 14.3861 1.78906 14.0625C1.78906 11.7357 2.69516 9.54824 4.34043 7.90293C5.9857 6.25762 8.17324 5.35156 10.5 5.35156C12.8268 5.35156 15.0143 6.25766 16.6596 7.90293C18.3049 9.5482 19.2109 11.7357 19.2109 14.0625C19.2109 14.3861 18.9486 14.6484 18.625 14.6484ZM2.98348 13.4766H18.0165C17.7165 9.59227 14.4599 6.52344 10.5 6.52344C6.54008 6.52344 3.28344 9.59227 2.98348 13.4766Z" fill="#181D24"/>
</g>
<defs>
<clipPath id="clip0_284_3663">
<rect width="20" height="20" fill="white" transform="translate(0.5)"/>
</clipPath>
</defs>
</svg>
