<svg width="21" height="20" viewBox="0 0 21 20" fill="none" xmlns="http://www.w3.org/2000/svg">
<path d="M20.5911 12.5123L20.5911 12.5118C20.541 11.3582 20.3405 10.081 20.0402 8.87978L20.0399 8.87879C19.74 7.72914 19.3639 6.6492 18.91 5.81702L18.91 5.81701L18.9091 5.81544C18.0279 4.26708 17.0976 3.59434 16.0856 3.3971C15.0846 3.20202 14.0215 3.47767 12.8938 3.77507C12.8298 3.79054 12.7654 3.80618 12.7007 3.82189C12.0353 3.98354 11.3385 4.15279 10.6218 4.22043H10.3821C9.6654 4.15279 8.96867 3.98354 8.30322 3.82189C8.23838 3.80614 8.17383 3.79046 8.10959 3.77495C8.09293 3.77074 8.0763 3.76654 8.05967 3.76233C6.95122 3.48207 5.90439 3.2174 4.91837 3.40956C3.90616 3.60683 2.97581 4.27975 2.09465 5.84066L2.09464 5.84065L2.09394 5.84193C1.64059 6.67308 1.23925 7.75266 0.963603 8.90519C0.66337 10.1063 0.462947 11.3832 0.412796 12.5367L0.41278 12.5371C0.362715 13.8138 0.487028 14.7525 0.769358 15.4198L0.769318 15.4198L0.770549 15.4225C1.05396 16.0409 1.47264 16.4388 2.0297 16.598L2.0297 16.598L2.03173 16.5986C2.53014 16.7297 3.10094 16.6757 3.6904 16.4196C4.67879 16.0138 5.81009 15.157 6.90824 14.1337L6.90825 14.1338L6.90961 14.1324C7.65417 13.4119 9.06699 13.0396 10.502 13.0396C11.9369 13.0396 13.3498 13.4119 14.0943 14.1324L14.0957 14.1337C15.1942 15.1573 16.3259 16.0144 17.3145 16.42L17.316 16.4206C17.9005 16.6493 18.4712 16.7304 18.9722 16.5986L18.9722 16.5986L18.9755 16.5976C19.5041 16.4391 19.9495 16.0683 20.2343 15.3956C20.5172 14.7521 20.6412 13.8126 20.5911 12.5123ZM6.12455 13.3145L6.1244 13.3146C5.10354 14.2608 4.09458 15.0457 3.26734 15.3621C2.86921 15.5113 2.55206 15.5722 2.31555 15.4862L2.31561 15.486L2.31011 15.4844C2.09881 15.421 1.91784 15.2501 1.77557 14.9183C1.58515 14.4659 1.48469 13.7119 1.53431 12.5704C1.58383 11.5059 1.75721 10.2923 2.0543 9.15347L2.05441 9.15301C2.32744 8.08573 2.67354 7.09892 3.09079 6.3626L3.09121 6.36186C3.76628 5.14673 4.48544 4.65487 5.25428 4.51535C6.03481 4.37371 6.88391 4.59008 7.83596 4.84062L7.83642 4.84074C8.60843 5.03997 9.41296 5.24133 10.2941 5.31686L10.2941 5.31722H10.3027H10.3028H10.303H10.3031H10.3033H10.3034H10.3035H10.3037H10.3038H10.304H10.3041H10.3042H10.3044H10.3045H10.3047H10.3048H10.3049H10.3051H10.3052H10.3053H10.3055H10.3056H10.3058H10.3059H10.306H10.3062H10.3063H10.3064H10.3065H10.3067H10.3068H10.3069H10.3071H10.3072H10.3073H10.3074H10.3076H10.3077H10.3078H10.308H10.3081H10.3082H10.3083H10.3085H10.3086H10.3087H10.3088H10.3089H10.3091H10.3092H10.3093H10.3094H10.3095H10.3097H10.3098H10.3099H10.31H10.3101H10.3103H10.3104H10.3105H10.3106H10.3107H10.3108H10.3109H10.3111H10.3112H10.3113H10.3114H10.3115H10.3116H10.3117H10.3118H10.312H10.3121H10.3122H10.3123H10.3124H10.3125H10.3126H10.3127H10.3128H10.3129H10.313H10.3131H10.3132H10.3134H10.3135H10.3136H10.3137H10.3138H10.3139H10.314H10.3141H10.3142H10.3143H10.3144H10.3145H10.3146H10.3147H10.3148H10.3149H10.315H10.3151H10.3152H10.3153H10.3154H10.3155H10.3156H10.3157H10.3158H10.3159H10.316H10.3161H10.3162H10.3163H10.3163H10.3164H10.3165H10.3166H10.3167H10.3168H10.3169H10.317H10.3171H10.3172H10.3173H10.3174H10.3175H10.3176H10.3176H10.3177H10.3178H10.3179H10.318H10.3181H10.3182H10.3183H10.3184H10.3185H10.3185H10.3186H10.3187H10.3188H10.3189H10.319H10.3191H10.3191H10.3192H10.3193H10.3194H10.3195H10.3196H10.3197H10.3197H10.3198H10.3199H10.32H10.3201H10.3202H10.3203H10.3203H10.3204H10.3205H10.3206H10.3207H10.3207H10.3208H10.3209H10.321H10.3211H10.3212H10.3212H10.3213H10.3214H10.3215H10.3216H10.3216H10.3217H10.3218H10.3219H10.322H10.322H10.3221H10.3222H10.3223H10.3223H10.3224H10.3225H10.3226H10.3227H10.3227H10.3228H10.3229H10.323H10.323H10.3231H10.3232H10.3233H10.3234H10.3234H10.3235H10.3236H10.3237H10.3237H10.3238H10.3239H10.324H10.324H10.3241H10.3242H10.3243H10.3243H10.3244H10.3245H10.3246H10.3246H10.3247H10.3248H10.3249H10.3249H10.325H10.3251H10.3252H10.3252H10.3253H10.3254H10.3255H10.3255H10.3256H10.3257H10.3258H10.3258H10.3259H10.326H10.326H10.3261H10.3262H10.3263H10.3263H10.3264H10.3265H10.3266H10.3266H10.3267H10.3268H10.3269H10.3269H10.327H10.3271H10.3271H10.3272H10.3273H10.3274H10.3274H10.3275H10.3276H10.3277H10.3277H10.3278H10.3279H10.328H10.328H10.3281H10.3282H10.3282H10.3283H10.3284H10.3285H10.3285H10.3286H10.3287H10.3288H10.3288H10.3289H10.329H10.329H10.3291H10.3292H10.3293H10.3293H10.3294H10.3295H10.3296H10.3296H10.3297H10.3298H10.3299H10.3299H10.33H10.3301H10.3302H10.3302H10.3303H10.3304H10.3305H10.3305H10.3306H10.3307H10.3308H10.3308H10.3309H10.331H10.3311H10.3311H10.3312H10.3313H10.3314H10.3314H10.3315H10.3316H10.3317H10.3317H10.3318H10.3319H10.332H10.332H10.3321H10.3322H10.3323H10.3324H10.3324H10.3325H10.3326H10.3327H10.3327H10.3328H10.3329H10.333H10.3331H10.3331H10.3332H10.3333H10.3334H10.3335H10.3335H10.3336H10.3337H10.3338H10.3339H10.3339H10.334H10.3341H10.3342H10.3343H10.3343H10.3344H10.3345H10.3346H10.3347H10.3348H10.3348H10.3349H10.335H10.3351H10.3352H10.3353H10.3353H10.3354H10.3355H10.3356H10.3357H10.3358H10.3358H10.3359H10.336H10.3361H10.3362H10.3363H10.3364H10.3365H10.3365H10.3366H10.3367H10.3368H10.3369H10.337H10.3371H10.3372H10.3373H10.3373H10.3374H10.3375H10.3376H10.3377H10.3378H10.3379H10.338H10.3381H10.3382H10.3383H10.3384H10.3384H10.3385H10.3386H10.3387H10.3388H10.3389H10.339H10.3391H10.3392H10.3393H10.3394H10.3395H10.3396H10.3397H10.3398H10.3399H10.34H10.3401H10.3402H10.3403H10.3404H10.3405H10.3406H10.3407H10.3408H10.3409H10.341H10.3411H10.3412H10.3413H10.3414H10.3415H10.3416H10.3417H10.3418H10.3419H10.342H10.3421H10.3422H10.3423H10.3425H10.3426H10.3427H10.3428H10.3429H10.343H10.3431H10.3432H10.3433H10.3434H10.3435H10.3437H10.3438H10.3439H10.344H10.3441H10.3442H10.3443H10.3445H10.3446H10.3447H10.3448H10.3449H10.345H10.3452H10.3453H10.3454H10.3455H10.3456H10.3457H10.3459H10.346H10.3461H10.3462H10.3463H10.3465H10.3466H10.3467H10.3468H10.347H10.3471H10.3472H10.3473H10.3475H10.3476H10.3477H10.3478H10.348H10.3481H10.3482H10.3484H10.3485H10.3486H10.3488H10.3489H10.349H10.3492H10.3493H10.3494H10.3496H10.3497H10.3498H10.35H10.3501H10.3502H10.3504H10.3505H10.3506H10.3508H10.3509H10.3511H10.3512H10.3513H10.3515H10.3516H10.3518H10.3519H10.3521H10.3522H10.3524H10.3525H10.6265H10.6267H10.6268H10.627H10.6271H10.6272H10.6274H10.6275H10.6277H10.6278H10.6279H10.6281H10.6282H10.6284H10.6285H10.6286H10.6288H10.6289H10.6291H10.6292H10.6293H10.6295H10.6296H10.6297H10.6299H10.63H10.6301H10.6303H10.6304H10.6305H10.6306H10.6308H10.6309H10.631H10.6312H10.6313H10.6314H10.6315H10.6317H10.6318H10.6319H10.632H10.6322H10.6323H10.6324H10.6325H10.6327H10.6328H10.6329H10.633H10.6331H10.6333H10.6334H10.6335H10.6336H10.6337H10.6339H10.634H10.6341H10.6342H10.6343H10.6344H10.6346H10.6347H10.6348H10.6349H10.635H10.6351H10.6352H10.6354H10.6355H10.6356H10.6357H10.6358H10.6359H10.636H10.6361H10.6362H10.6363H10.6364H10.6366H10.6367H10.6368H10.6369H10.637H10.6371H10.6372H10.6373H10.6374H10.6375H10.6376H10.6377H10.6378H10.6379H10.638H10.6381H10.6382H10.6383H10.6384H10.6385H10.6386H10.6387H10.6388H10.6389H10.639H10.6391H10.6392H10.6393H10.6394H10.6395H10.6396H10.6397H10.6398H10.6399H10.64H10.6401H10.6402H10.6403H10.6404H10.6405H10.6406H10.6407H10.6408H10.6408H10.6409H10.641H10.6411H10.6412H10.6413H10.6414H10.6415H10.6416H10.6417H10.6418H10.6418H10.6419H10.642H10.6421H10.6422H10.6423H10.6424H10.6425H10.6426H10.6426H10.6427H10.6428H10.6429H10.643H10.6431H10.6432H10.6432H10.6433H10.6434H10.6435H10.6436H10.6437H10.6438H10.6438H10.6439H10.644H10.6441H10.6442H10.6443H10.6443H10.6444H10.6445H10.6446H10.6447H10.6448H10.6448H10.6449H10.645H10.6451H10.6452H10.6452H10.6453H10.6454H10.6455H10.6456H10.6456H10.6457H10.6458H10.6459H10.646H10.646H10.6461H10.6462H10.6463H10.6463H10.6464H10.6465H10.6466H10.6467H10.6467H10.6468H10.6469H10.647H10.647H10.6471H10.6472H10.6473H10.6474H10.6474H10.6475H10.6476H10.6477H10.6477H10.6478H10.6479H10.648H10.648H10.6481H10.6482H10.6483H10.6483H10.6484H10.6485H10.6486H10.6486H10.6487H10.6488H10.6489H10.6489H10.649H10.6491H10.6492H10.6492H10.6493H10.6494H10.6494H10.6495H10.6496H10.6497H10.6497H10.6498H10.6499H10.65H10.65H10.6501H10.6502H10.6503H10.6503H10.6504H10.6505H10.6505H10.6506H10.6507H10.6508H10.6508H10.6509H10.651H10.6511H10.6511H10.6512H10.6513H10.6514H10.6514H10.6515H10.6516H10.6516H10.6517H10.6518H10.6519H10.6519H10.652H10.6521H10.6522H10.6522H10.6523H10.6524H10.6524H10.6525H10.6526H10.6527H10.6527H10.6528H10.6529H10.653H10.653H10.6531H10.6532H10.6533H10.6533H10.6534H10.6535H10.6536H10.6536H10.6537H10.6538H10.6538H10.6539H10.654H10.6541H10.6541H10.6542H10.6543H10.6544H10.6544H10.6545H10.6546H10.6547H10.6547H10.6548H10.6549H10.655H10.655H10.6551H10.6552H10.6553H10.6553H10.6554H10.6555H10.6556H10.6557H10.6557H10.6558H10.6559H10.656H10.656H10.6561H10.6562H10.6563H10.6564H10.6564H10.6565H10.6566H10.6567H10.6567H10.6568H10.6569H10.657H10.6571H10.6571H10.6572H10.6573H10.6574H10.6575H10.6575H10.6576H10.6577H10.6578H10.6579H10.6579H10.658H10.6581H10.6582H10.6583H10.6583H10.6584H10.6585H10.6586H10.6587H10.6588H10.6588H10.6589H10.659H10.6591H10.6592H10.6593H10.6593H10.6594H10.6595H10.6596H10.6597H10.6598H10.6599H10.6599H10.66H10.6601H10.6602H10.6603H10.6604H10.6605H10.6606H10.6606H10.6607H10.6608H10.6609H10.661H10.6611H10.6612H10.6613H10.6614H10.6615H10.6615H10.6616H10.6617H10.6618H10.6619H10.662H10.6621H10.6622H10.6623H10.6624H10.6625H10.6626H10.6627H10.6628H10.6629H10.6629H10.663H10.6631H10.6632H10.6633H10.6634H10.6635H10.6636H10.6637H10.6638H10.6639H10.664H10.6641H10.6642H10.6643H10.6644H10.6645H10.6646H10.6647H10.6648H10.6649H10.665H10.6651H10.6652H10.6653H10.6654H10.6656H10.6657H10.6658H10.6659H10.666H10.6661H10.6662H10.6663H10.6664H10.6665H10.6666H10.6667H10.6668H10.6669H10.6671H10.6672H10.6673H10.6674H10.6675H10.6676H10.6677H10.6678H10.668H10.6681H10.6682H10.6683H10.6684H10.6685H10.6686H10.6688H10.6689H10.669H10.6691H10.6692H10.6693H10.6695H10.6696H10.6697H10.6698H10.6699H10.6701H10.6702H10.6703H10.6704H10.6706H10.6707H10.6708H10.6709H10.6711H10.6712H10.6713H10.6714H10.6716H10.6717H10.6718H10.6719H10.6721H10.6722H10.6723H10.6725H10.6726H10.6727H10.6729H10.673H10.6731H10.6733H10.6734H10.6735H10.6737H10.6738H10.6739H10.6741H10.6742H10.6743H10.6745H10.6746H10.6748H10.6749H10.675H10.6752H10.6753H10.6755H10.6756H10.6758H10.6759H10.676H10.6762H10.6763V5.31757L10.6846 5.31688C11.5908 5.24136 12.3953 5.04001 13.1675 4.84074L13.2033 4.83181C14.1415 4.59718 14.9789 4.3878 15.75 4.52476C16.5188 4.66131 17.2378 5.14703 17.9127 6.36187L17.9131 6.3626C18.3305 7.09907 18.6765 8.06093 18.9492 9.15194C19.2222 10.2936 19.4202 11.4826 19.4696 12.5705C19.5192 13.7114 19.4189 14.4655 19.2036 14.9678C19.0616 15.2992 18.881 15.4701 18.6701 15.5338C18.4262 15.5999 18.1021 15.5581 17.7124 15.4122C16.859 15.0705 15.8495 14.3095 14.8564 13.3662C13.8832 12.3937 12.1835 11.9179 10.502 11.9179C8.81932 11.9179 7.12156 12.3942 6.12455 13.3145Z" fill="#181D24" stroke="#181D24" stroke-width="0.2"/>
<path d="M8.20781 7.6588C7.9587 7.4346 7.65977 7.26023 7.31102 7.23531C7.28611 6.91147 7.13664 6.58763 6.91245 6.36343L6.88753 6.33852C6.61351 6.0645 6.26476 5.91504 5.86619 5.91504C5.46761 5.91504 5.09395 6.08941 4.84484 6.33852C4.62065 6.56272 4.44627 6.88656 4.42136 7.23531C4.07261 7.26023 3.77368 7.40969 3.52457 7.63389L3.49966 7.6588C3.22564 7.93282 3.07617 8.28157 3.07617 8.68015C3.07617 9.07872 3.25055 9.45238 3.49966 9.70149C3.74877 9.9506 4.0477 10.1001 4.42136 10.125C4.44627 10.4737 4.59573 10.7976 4.84484 11.0218C5.11886 11.2958 5.46761 11.4453 5.86619 11.4453C6.26476 11.4453 6.63843 11.2709 6.88753 11.0218C7.11173 10.7727 7.28611 10.4737 7.31102 10.125C7.65977 10.1001 7.98361 9.9506 8.20781 9.70149C8.48183 9.42747 8.6313 9.07872 8.6313 8.68015C8.6313 8.28157 8.45692 7.90791 8.20781 7.6588ZM7.58504 9.05381C7.4854 9.15345 7.36084 9.20327 7.21138 9.20327H6.86262C6.61351 9.20327 6.38932 9.40256 6.38932 9.67658V10.0004C6.38932 10.1499 6.3395 10.2744 6.23985 10.3741C6.14021 10.4737 6.01565 10.5235 5.86619 10.5235C5.71672 10.5235 5.59217 10.4737 5.49253 10.3741C5.39288 10.2744 5.34306 10.1499 5.34306 10.0004V9.65167C5.34306 9.40256 5.14377 9.17836 4.86975 9.17836H4.521C4.37154 9.17836 4.24698 9.12854 4.14734 9.0289C4.07261 8.95416 3.99787 8.82961 3.99787 8.68015C3.99787 8.53068 4.0477 8.40613 4.14734 8.30648C4.14734 8.30648 4.14734 8.30648 4.17225 8.28157C4.27189 8.20684 4.39645 8.15702 4.521 8.15702H4.86975C5.11886 8.15702 5.34306 7.95773 5.34306 7.68371V7.33496C5.34306 7.18549 5.39288 7.06094 5.49253 6.9613C5.59217 6.86165 5.71672 6.81183 5.86619 6.81183C6.01565 6.81183 6.14021 6.86165 6.23985 6.9613C6.23985 6.9613 6.23985 6.9613 6.26476 6.98621C6.3395 7.08585 6.38932 7.2104 6.38932 7.33496V7.68371C6.38932 7.93282 6.5886 8.15702 6.86262 8.15702H7.21138C7.36084 8.15702 7.4854 8.20684 7.58504 8.30648C7.68468 8.40613 7.7345 8.53068 7.7345 8.68015C7.7345 8.82961 7.68468 8.95416 7.58504 9.05381Z" fill="#181D24"/>
<path d="M14.8328 7.78282C15.3143 7.78282 15.7047 7.39247 15.7047 6.91094C15.7047 6.42942 15.3143 6.03906 14.8328 6.03906C14.3513 6.03906 13.9609 6.42942 13.9609 6.91094C13.9609 7.39247 14.3513 7.78282 14.8328 7.78282Z" fill="#181D24"/>
<path d="M14.8328 11.3209C15.3143 11.3209 15.7047 10.9306 15.7047 10.449C15.7047 9.9675 15.3143 9.57715 14.8328 9.57715C14.3513 9.57715 13.9609 9.9675 13.9609 10.449C13.9609 10.9306 14.3513 11.3209 14.8328 11.3209Z" fill="#181D24"/>
<path d="M13.0652 9.55235C13.5468 9.55235 13.9371 9.162 13.9371 8.68047C13.9371 8.19895 13.5468 7.80859 13.0652 7.80859C12.5837 7.80859 12.1934 8.19895 12.1934 8.68047C12.1934 9.162 12.5837 9.55235 13.0652 9.55235Z" fill="#181D24"/>
<path d="M16.6063 9.55235C17.0878 9.55235 17.4781 9.162 17.4781 8.68047C17.4781 8.19895 17.0878 7.80859 16.6063 7.80859C16.1247 7.80859 15.7344 8.19895 15.7344 8.68047C15.7344 9.162 16.1247 9.55235 16.6063 9.55235Z" fill="#181D24"/>
</svg>
