<svg width="20" height="20" viewBox="0 0 20 20" fill="none" xmlns="http://www.w3.org/2000/svg">
<g clip-path="url(#clip0_284_3782)">
<path d="M17.6784 6.76344C17.6784 6.43676 17.4135 6.17188 17.0868 6.17188H2.91578C2.5891 6.17188 2.32422 6.43672 2.32422 6.76344C2.32422 9.77902 4.07218 12.3936 6.60788 13.6485L5.52644 19.2972C5.46499 19.6181 5.67531 19.928 5.9962 19.9895C6.03378 19.9967 6.07117 20.0002 6.10808 20.0002C6.3862 20.0002 6.63417 19.803 6.68843 19.5197L7.19624 16.8671H12.806L13.3142 19.5198C13.3684 19.8031 13.6163 20.0002 13.8945 20.0002C13.9314 20.0002 13.9688 19.9967 14.0064 19.9895C14.3273 19.928 14.5376 19.6181 14.4761 19.2972L13.3941 13.6488C15.9301 12.394 17.6784 9.77925 17.6784 6.76344ZM7.42276 15.684L7.72671 14.0965C8.44573 14.32 9.20971 14.4405 10.0013 14.4405C10.7927 14.4405 11.5565 14.3201 12.2754 14.0967L12.5795 15.684H7.42276ZM10.0013 13.2574C6.61984 13.2574 3.83371 10.6597 3.53402 7.355H16.4685C16.1688 10.6597 13.3828 13.2574 10.0013 13.2574Z" fill="#181D24"/>
<path d="M7.72884 3.05464C7.86759 2.91198 8.20298 2.52077 8.32134 1.97046C8.41911 1.51597 8.39411 0.834643 7.72001 0.170269C7.48739 -0.0590667 7.11286 -0.0564104 6.88349 0.176284C6.65415 0.408901 6.65685 0.783471 6.8895 1.01281C7.20575 1.32456 7.19802 1.56667 7.1647 1.72175C7.10794 1.98573 6.91818 2.19128 6.88071 2.2298C6.74196 2.37245 6.40657 2.76366 6.28822 3.31397C6.19044 3.76847 6.21544 4.44979 6.88954 5.11417C7.00478 5.22776 7.15482 5.2844 7.30478 5.2844C7.45759 5.2844 7.61032 5.22557 7.72606 5.10811C7.9554 4.87549 7.9527 4.50092 7.72005 4.27159C7.4038 3.95983 7.41153 3.71772 7.44485 3.56265C7.50161 3.29874 7.69138 3.09319 7.72884 3.05464Z" fill="#181D24"/>
<path d="M10.4242 3.05464C10.5629 2.91198 10.8983 2.52077 11.0166 1.97046C11.1144 1.51597 11.0894 0.834643 10.4153 0.170269C10.1827 -0.0590667 9.80814 -0.0564104 9.5788 0.176284C9.34946 0.408901 9.35216 0.783471 9.58482 1.01281C9.90107 1.32456 9.89333 1.56667 9.86001 1.72175C9.80325 1.98573 9.61349 2.19128 9.57603 2.2298C9.43728 2.37245 9.10189 2.76366 8.98353 3.31397C8.88575 3.76847 8.91075 4.44979 9.58486 5.11417C9.70005 5.22776 9.85009 5.2844 10.0001 5.2844C10.1529 5.2844 10.3056 5.22557 10.4214 5.10811C10.6507 4.87549 10.648 4.50092 10.4154 4.27159C10.0991 3.95983 10.1068 3.71772 10.1402 3.56265C10.1969 3.29874 10.3867 3.09319 10.4242 3.05464Z" fill="#181D24"/>
<path d="M13.1195 3.05464C13.2582 2.91198 13.5936 2.52077 13.712 1.97046C13.8097 1.51597 13.7847 0.834643 13.1106 0.170269C12.878 -0.0590667 12.5035 -0.0564104 12.2741 0.176284C12.0448 0.408901 12.0475 0.783471 12.2801 1.01281C12.5964 1.32456 12.5886 1.56667 12.5553 1.72175C12.4986 1.98573 12.3088 2.19128 12.2713 2.2298C12.1326 2.37245 11.7972 2.76366 11.6788 3.31397C11.5811 3.76847 11.6061 4.44979 12.2802 5.11417C12.3954 5.22776 12.5454 5.2844 12.6954 5.2844C12.8482 5.2844 13.0009 5.22557 13.1167 5.10811C13.346 4.87549 13.3433 4.50092 13.1107 4.27159C12.7944 3.95983 12.8022 3.71772 12.8355 3.56265C12.8922 3.29874 13.082 3.09319 13.1195 3.05464Z" fill="#181D24"/>
</g>
<defs>
<clipPath id="clip0_284_3782">
<rect width="20" height="20" fill="white"/>
</clipPath>
</defs>
</svg>
