<svg width="24" height="24" viewBox="0 0 24 24" fill="none" xmlns="http://www.w3.org/2000/svg">
<g clip-path="url(#clip0_635_15518)">
<path d="M23.9056 14.9528L22.9434 12.4269C22.2217 10.6227 20.4175 9.41992 18.493 9.41992H17.6511C15.7266 9.41992 13.9224 10.6227 13.2007 12.4269L12.5993 13.8703C11.6371 13.3892 10.6748 13.0283 9.59232 13.0283H7.307C4.78113 13.0283 2.61609 14.4717 1.77413 16.757L0.0902099 20.9668C-0.15035 21.5682 0.09021 22.2899 0.811889 22.5304C1.53357 22.771 2.13497 22.5304 2.37553 21.8087L4.05945 17.599C4.54057 16.2759 5.86364 15.4339 7.307 15.4339H9.47204C10.9154 15.4339 12.2385 16.2759 12.8399 17.7192L14.5238 21.929C14.7644 22.4101 15.1252 22.6507 15.6063 22.6507C15.7266 22.6507 15.8469 22.6507 16.0874 22.5304C16.6888 22.2899 17.0497 21.5682 16.8091 20.9668L15.1252 16.757C15.0049 16.3962 14.7644 15.915 14.5238 15.5542L15.486 13.2689C15.8469 12.3066 16.6888 11.7052 17.7714 11.7052H18.6133C19.5756 11.7052 20.5378 12.3066 20.8986 13.2689L21.8609 15.7948C22.1014 16.2759 22.4623 16.5164 22.9434 16.5164C23.0637 16.5164 23.1839 16.5164 23.4245 16.3962C23.9056 16.2759 24.1462 15.5542 23.9056 14.9528Z" fill="#918675" stroke="white" stroke-width="0.824776"/>
<path d="M8.38932 11.8255C11.0355 11.8255 13.2005 9.66048 13.2005 7.01432C13.2005 4.36816 11.0355 2.20312 8.38932 2.20312C5.74316 2.20312 3.57812 4.36816 3.57812 7.01432C3.57812 9.66048 5.74316 11.8255 8.38932 11.8255ZM8.38932 4.60872C9.7124 4.60872 10.7949 5.69124 10.7949 7.01432C10.7949 8.3374 9.7124 9.41992 8.38932 9.41992C7.06624 9.41992 5.98372 8.3374 5.98372 7.01432C5.98372 5.69124 7.06624 4.60872 8.38932 4.60872Z" fill="#918675" stroke="white" stroke-width="0.824776"/>
<path d="M18.0127 8.21679C20.0575 8.21679 21.6211 6.65315 21.6211 4.6084C21.6211 2.56364 20.0575 1 18.0127 1C15.9679 1 14.4043 2.56364 14.4043 4.6084C14.4043 6.65315 15.9679 8.21679 18.0127 8.21679ZM18.0127 3.4056C18.7344 3.4056 19.2155 3.88672 19.2155 4.6084C19.2155 5.33008 18.7344 5.8112 18.0127 5.8112C17.291 5.8112 16.8099 5.33008 16.8099 4.6084C16.8099 3.88672 17.291 3.4056 18.0127 3.4056Z" fill="#918675" stroke="white" stroke-width="0.824776"/>
</g>
<defs>
<clipPath id="clip0_635_15518">
<rect width="24" height="24" fill="white"/>
</clipPath>
</defs>
</svg>
