<svg width="21" height="20" viewBox="0 0 21 20" fill="none" xmlns="http://www.w3.org/2000/svg">
<g clip-path="url(#clip0_284_3602)">
<path d="M20.498 4.935C20.498 4.77598 20.4349 4.62344 20.3224 4.51098L18.5788 2.76734L19.2064 2.13973C19.4405 1.90555 19.4405 1.52586 19.2064 1.29168C18.9722 1.05754 18.5925 1.0575 18.3583 1.29168L17.7307 1.9193L15.9871 0.175664C15.8746 0.0632031 15.7221 0 15.563 0C15.4039 0 15.2514 0.0632031 15.139 0.175664L13.6744 1.64027L12.9824 0.948281C12.87 0.83582 12.7175 0.772617 12.5584 0.772617C12.3993 0.772617 12.2468 0.83582 12.1344 0.948281L10.2457 2.83691C10.0116 3.07109 10.0116 3.45078 10.2457 3.68496L13.1054 6.54461L7.04273 12.6073L4.18309 9.74766C3.94895 9.51344 3.56922 9.51352 3.33504 9.74766L1.44637 11.6363C1.33391 11.7488 1.2707 11.9012 1.2707 12.0603C1.2707 12.2193 1.33387 12.3719 1.44637 12.4843L2.1384 13.1764L0.673711 14.641C0.561211 14.7535 0.498047 14.906 0.498047 15.065C0.498047 15.2241 0.561211 15.3766 0.673711 15.4891L2.41734 17.2327L1.78973 17.8603C1.55555 18.0945 1.55555 18.4741 1.78973 18.7083C1.90684 18.8254 2.06031 18.8839 2.21375 18.8839C2.36719 18.8839 2.5207 18.8254 2.63777 18.7083L3.26539 18.0807L5.00902 19.8243C5.12148 19.9368 5.27398 20 5.43305 20C5.59211 20 5.74465 19.9368 5.85707 19.8243L7.32168 18.3597L8.01367 19.0517C8.12613 19.1641 8.27863 19.2273 8.4377 19.2273C8.59672 19.2273 8.7493 19.1641 8.86172 19.0517L10.7504 17.163C10.9845 16.9289 10.9845 16.5492 10.7504 16.315L7.8907 13.4554L13.9534 7.39266L16.813 10.2523C16.9302 10.3695 17.0836 10.428 17.2371 10.428C17.3905 10.428 17.544 10.3694 17.6611 10.2523L19.5497 8.36367C19.6622 8.25121 19.7254 8.09871 19.7254 7.93965C19.7254 7.78059 19.6622 7.62809 19.5497 7.51562L18.8577 6.82359L20.3223 5.35898C20.4349 5.24652 20.498 5.09402 20.498 4.935ZM5.43305 18.5523L1.94578 15.065L2.98637 14.0244L6.47363 17.5117L5.43305 18.5523ZM9.47832 16.7391L8.43773 17.7796L2.7184 12.0604L3.75898 11.0198L9.47832 16.7391ZM17.2371 8.98023L11.5178 3.26094L12.5584 2.22035L18.2777 7.93969L17.2371 8.98023ZM18.0097 5.97559L14.5225 2.48832L15.563 1.44777L19.0503 4.93504L18.0097 5.97559Z" fill="#181D24"/>
</g>
<defs>
<clipPath id="clip0_284_3602">
<rect width="20" height="20" fill="white" transform="translate(0.5)"/>
</clipPath>
</defs>
</svg>
