<svg width="20" height="20" viewBox="0 0 20 20" fill="none" xmlns="http://www.w3.org/2000/svg">
<path d="M19.4141 6.27605H13.7239V0.585938C13.7239 0.262344 13.4616 0 13.138 0H6.86199C6.5384 0 6.27605 0.262344 6.27605 0.585938V6.27605H0.585938C0.262344 6.27605 0 6.5384 0 6.86199V13.138C0 13.4616 0.262344 13.7239 0.585938 13.7239H6.27605V19.4141C6.27605 19.7377 6.5384 20 6.86199 20H13.138C13.4616 20 13.7239 19.7377 13.7239 19.4141V13.7239H19.4141C19.7377 13.7239 20 13.4616 20 13.138V6.86199C20 6.5384 19.7377 6.27605 19.4141 6.27605ZM18.8281 12.5521H13.138C12.8144 12.5521 12.5521 12.8144 12.5521 13.138V18.8281H7.44793V13.138C7.44793 12.8144 7.18559 12.5521 6.86199 12.5521H1.17188V7.44793H6.86199C7.18559 7.44793 7.44793 7.18559 7.44793 6.86199V1.17188H12.5521V6.86199C12.5521 7.18559 12.8144 7.44793 13.138 7.44793H18.8281V12.5521Z" fill="#181D24"/>
</svg>
