<svg width="20" height="20" viewBox="0 0 20 20" fill="none" xmlns="http://www.w3.org/2000/svg">
<g clip-path="url(#clip0_284_3535)">
<path d="M19.1187 16.1209V16.1235C19.1173 16.1687 19.0799 16.2052 19.0344 16.2052H0.965545C0.919161 16.2052 0.881249 16.1673 0.881249 16.1209V14.7708C0.881249 14.7244 0.919186 14.6865 0.965545 14.6865H19.0344C19.0808 14.6865 19.1187 14.7244 19.1187 14.7708V16.1209ZM20.1 5.6523V4.30222C20.1 3.71458 19.6221 3.23664 19.0344 3.23664H14.7692C14.4983 3.23664 14.2786 3.45634 14.2786 3.72726C14.2786 3.99819 14.4983 4.21789 14.7692 4.21789H19.0344C19.0808 4.21789 19.1187 4.25578 19.1187 4.30222V5.6523C19.1187 5.69873 19.0807 5.73664 19.0344 5.73664H7.47913V4.21789H11.2536C11.5246 4.21789 11.7443 3.99819 11.7443 3.72726C11.7443 3.45634 11.5246 3.23664 11.2536 3.23664H7.47202C7.43231 3.00556 7.23095 2.82969 6.9885 2.82969H2.53539C2.29294 2.82969 2.09158 3.00556 2.05187 3.23664H0.965545C0.37789 3.23664 -0.1 3.71458 -0.1 4.30222V5.6523C-0.1 6.06334 0.133925 6.42016 0.474921 6.59778V13.8253C0.133887 14.0029 -0.1 14.3598 -0.1 14.7708V16.1209C-0.1 16.7085 0.377891 17.1865 0.965545 17.1865H19.0344C19.622 17.1865 20.0999 16.7085 20.0999 16.1209V14.7708C20.0999 14.3597 19.866 14.0029 19.525 13.8253V6.59779C19.866 6.42018 20.1 6.06339 20.1 5.6523ZM16.5135 13.7052V6.71788H18.5438V13.7052H16.5135ZM13.502 13.7052V6.71788H15.5323V13.7052H13.502ZM10.4906 13.7052V6.71788H12.5208V13.7052H10.4906ZM7.47913 13.7052V7.98386V6.71788H9.50936V13.7052H7.47913ZM4.46765 13.7053V9.51151H5.95151C6.14396 9.51151 6.32815 9.4755 6.49788 9.41015V13.7053H4.46765ZM1.45617 13.7052V6.71788H2.04476V7.98386C2.04476 8.7974 2.68381 9.46437 3.48636 9.50912V13.7052H1.45617ZM3.02601 3.81094H6.49788V7.98386C6.49788 8.28508 6.25269 8.53026 5.95151 8.53026H3.57238C3.2712 8.53026 3.02601 8.28508 3.02601 7.98386V3.81094ZM0.881249 4.30222C0.881249 4.2558 0.919186 4.21789 0.965545 4.21789H2.04476V5.73664H0.965545C0.919161 5.73664 0.881249 5.69874 0.881249 5.6523V4.30222Z" fill="#181D24" stroke="#181D24" stroke-width="0.2"/>
<path d="M13.0117 4.11719C13.2275 4.11719 13.4023 3.9423 13.4023 3.72656C13.4023 3.51083 13.2275 3.33594 13.0117 3.33594C12.796 3.33594 12.6211 3.51083 12.6211 3.72656C12.6211 3.9423 12.796 4.11719 13.0117 4.11719Z" fill="#181D24"/>
</g>
<defs>
<clipPath id="clip0_284_3535">
<rect width="20" height="20" fill="white"/>
</clipPath>
</defs>
</svg>
