<svg width="20" height="20" viewBox="0 0 20 20" fill="none" xmlns="http://www.w3.org/2000/svg">
<g clip-path="url(#clip0_284_3711)">
<path d="M18.1172 13.7106H0.578125C0.254531 13.7106 -0.0078125 13.4483 -0.0078125 13.1247V6.24969C-0.0078125 5.9925 0.159883 5.76543 0.405664 5.68973C2.60648 5.01195 4.68105 4.59891 6.57184 4.46207C8.93297 4.29113 11.0304 4.5509 12.8057 5.2341C15.0571 6.10043 16.7909 7.73102 17.8197 9.94977C18.5929 11.617 18.6977 13.0252 18.7017 13.0844C18.7129 13.2464 18.6563 13.4058 18.5455 13.5246C18.4347 13.6432 18.2796 13.7106 18.1172 13.7106ZM1.16406 12.5388H17.4382C17.3373 12.0254 17.1349 11.2481 16.7386 10.4041C15.8257 8.45961 14.3608 7.08813 12.3849 6.32781C9.50141 5.2182 5.72785 5.33867 1.16406 6.68504V12.5388Z" fill="#181D24"/>
<path d="M8.11716 9.33613C6.91228 9.33613 5.77814 8.97605 4.83732 8.29488C3.91099 7.62414 3.25259 6.67945 2.98337 5.63469C2.94341 5.47957 2.96869 5.31484 3.05334 5.17887C3.13798 5.04293 3.27463 4.94746 3.43142 4.91484C7.11084 4.14922 10.2649 4.25683 12.8057 5.23465C13.1001 5.34793 13.252 5.67387 13.1494 5.97211C12.8184 6.93383 12.1443 7.79492 11.2511 8.39672C10.339 9.01129 9.25533 9.33613 8.11716 9.33613ZM4.33318 5.93289C4.96326 7.25551 6.45834 8.16426 8.11716 8.16426C9.68751 8.16426 11.1226 7.34902 11.8027 6.125C9.73181 5.47281 7.22525 5.40824 4.33318 5.93289Z" fill="#181D24"/>
<path d="M19.4062 16.2109H0.578125C0.254531 16.2109 -0.0078125 15.9486 -0.0078125 15.625V13.125C-0.0078125 12.8014 0.254531 12.5391 0.578125 12.5391H18.2344C19.2036 12.5391 19.9922 13.3277 19.9922 14.2969V15.625C19.9922 15.9486 19.7298 16.2109 19.4062 16.2109ZM1.16406 15.0391H18.8203V14.2969C18.8203 13.9738 18.5575 13.7109 18.2344 13.7109H1.16406V15.0391Z" fill="#181D24"/>
<path d="M0.5783 6.83685C0.25461 6.83685 -0.0078125 6.57443 -0.0078125 6.25074V4.37518C-0.0078125 4.05148 0.25461 3.78906 0.5783 3.78906C0.901991 3.78906 1.16441 4.05148 1.16441 4.37518V6.25074C1.16441 6.57443 0.901991 6.83685 0.5783 6.83685Z" fill="#181D24"/>
<path d="M18.4311 9.96129H16.8576C16.5339 9.96129 16.2715 9.69887 16.2715 9.37518C16.2715 9.05148 16.5339 8.78906 16.8576 8.78906H18.4311C18.7548 8.78906 19.0172 9.05148 19.0172 9.37518C19.0172 9.69887 18.7548 9.96129 18.4311 9.96129Z" fill="#181D24"/>
<path d="M3.16228 9.96129C3.48599 9.96129 3.7484 9.69888 3.7484 9.37518C3.7484 9.05147 3.48599 8.78906 3.16228 8.78906C2.83858 8.78906 2.57617 9.05147 2.57617 9.37518C2.57617 9.69888 2.83858 9.96129 3.16228 9.96129Z" fill="#181D24"/>
</g>
<defs>
<clipPath id="clip0_284_3711">
<rect width="20" height="20" fill="white"/>
</clipPath>
</defs>
</svg>
