<svg width="20" height="20" viewBox="0 0 20 20" fill="none" xmlns="http://www.w3.org/2000/svg">
<path d="M6.25 18.75C7.28375 18.75 8.125 17.9088 8.125 16.875C8.125 15.8412 7.28375 15 6.25 15C5.21625 15 4.375 15.8412 4.375 16.875C4.375 17.9088 5.21625 18.75 6.25 18.75ZM6.25 16.25C6.595 16.25 6.875 16.5306 6.875 16.875C6.875 17.2194 6.595 17.5 6.25 17.5C5.905 17.5 5.625 17.2194 5.625 16.875C5.625 16.5306 5.905 16.25 6.25 16.25Z" fill="#181D24"/>
<path d="M13.75 15C12.7162 15 11.875 15.8412 11.875 16.875C11.875 17.9088 12.7162 18.75 13.75 18.75C14.7838 18.75 15.625 17.9088 15.625 16.875C15.625 15.8412 14.7838 15 13.75 15ZM13.75 17.5C13.405 17.5 13.125 17.2194 13.125 16.875C13.125 16.5306 13.405 16.25 13.75 16.25C14.095 16.25 14.375 16.5306 14.375 16.875C14.375 17.2194 14.095 17.5 13.75 17.5Z" fill="#181D24"/>
<path d="M2.5625 1.875C3.41625 9.98438 2.63875 2.59437 3.63625 12.0712C3.73688 13.0287 4.53875 13.75 5.50063 13.75H15.2394C16.1181 13.75 16.8894 13.1263 17.0731 12.2675L18.5744 5.26125C18.6538 4.89062 18.5619 4.50875 18.3238 4.21375C18.0856 3.91938 17.7306 3.75 17.3519 3.75H4.01625L3.74625 1.185C3.71313 0.86625 3.445 0.625 3.125 0.625H1.25C0.904375 0.625 0.625 0.905 0.625 1.25C0.625 1.595 0.904375 1.875 1.25 1.875H2.5625ZM17.3525 5L15.8513 12.0062C15.7894 12.2925 15.5325 12.5 15.2394 12.5H5.50063C5.17938 12.5 4.91313 12.2594 4.87875 11.9406L4.14813 5H17.3525Z" fill="#181D24"/>
<path d="M8.125 8.75C8.125 8.405 8.40438 8.125 8.75 8.125H12.5C12.8456 8.125 13.125 8.405 13.125 8.75C13.125 9.095 12.8456 9.375 12.5 9.375H8.75C8.40438 9.375 8.125 9.095 8.125 8.75Z" fill="#181D24"/>
</svg>
