<svg width="20" height="20" viewBox="0 0 20 20" fill="none" xmlns="http://www.w3.org/2000/svg">
<g clip-path="url(#clip0_284_3904)">
<path d="M0 0V20H20V0H0ZM18.8281 1.17188V4.6875H1.17188V1.17188H18.8281ZM1.17188 18.8281V5.85938H18.8281V18.8281H1.17188Z" fill="#181D24"/>
<path d="M2.34375 8.20312H3.51562V16.4844H16.4844V8.20312H17.6562V7.03125H2.34375V8.20312ZM4.6875 10.9636H15.3125V12.5521H4.6875V10.9636ZM4.6875 15.3125V13.7239H15.3125V15.3125H4.6875ZM15.3125 9.79168H4.6875V8.20312H15.3125V9.79168Z" fill="#181D24"/>
<path d="M2.34375 2.34375H3.51562V3.51562H2.34375V2.34375Z" fill="#181D24"/>
<path d="M4.6875 2.34375H5.85938V3.51562H4.6875V2.34375Z" fill="#181D24"/>
<path d="M7.03125 2.34375H8.20312V3.51562H7.03125V2.34375Z" fill="#181D24"/>
<path d="M16.4844 2.34375H17.6562V3.51562H16.4844V2.34375Z" fill="#181D24"/>
<path d="M14.1406 2.34375H15.3125V3.51562H14.1406V2.34375Z" fill="#181D24"/>
</g>
<defs>
<clipPath id="clip0_284_3904">
<rect width="20" height="20" fill="white"/>
</clipPath>
</defs>
</svg>
