<svg width="21" height="20" viewBox="0 0 21 20" fill="none" xmlns="http://www.w3.org/2000/svg">
<g clip-path="url(#clip0_284_3633)">
<path d="M17.2714 0H3.72082C1.9427 0 0.496094 1.4466 0.496094 3.22473V16.7753C0.496094 18.5534 1.9427 20 3.72082 20H17.2714C19.0495 20 20.4961 18.5534 20.4961 16.7753V3.22473C20.4961 1.4466 19.0495 0 17.2714 0ZM19.315 16.7753C19.315 17.9021 18.3982 18.8189 17.2714 18.8189H3.72082C2.59398 18.8189 1.67719 17.9021 1.67719 16.7753V3.22473C1.67719 2.09789 2.59395 1.18109 3.72082 1.18109H17.2714C18.3982 1.18109 19.315 2.09785 19.315 3.22473V16.7753Z" fill="#181D24"/>
<path d="M10.9104 3.28711H8.0857C7.00027 3.28711 6.11719 4.1702 6.11719 5.25563V16.1212C6.11719 16.4473 6.3816 16.7118 6.70773 16.7118H9.46363C9.78977 16.7118 10.0542 16.4473 10.0542 16.1212V12.7947H10.9103C13.5316 12.7947 15.6641 10.6621 15.6641 8.0409C15.6641 5.41965 13.5316 3.28711 10.9104 3.28711ZM10.9104 11.6136H9.46367C9.13754 11.6136 8.87312 11.878 8.87312 12.2041V15.5306H7.29832V5.25559C7.29832 4.82141 7.65156 4.4682 8.0857 4.4682H10.9104C12.8803 4.4682 14.483 6.0709 14.483 8.0409C14.483 10.0109 12.8803 11.6136 10.9104 11.6136Z" fill="#181D24"/>
<path d="M10.9103 6.04297H9.46359C9.13746 6.04297 8.87305 6.30738 8.87305 6.63352V9.4482C8.87305 9.77434 9.13746 10.0387 9.46359 10.0387H10.9103C12.0119 10.0387 12.9082 9.1425 12.9082 8.04086C12.9081 6.93922 12.0119 6.04297 10.9103 6.04297ZM10.9103 8.85766H10.0541V7.22406H10.9103C11.3606 7.22406 11.727 7.59047 11.727 8.04086C11.727 8.49121 11.3606 8.85766 10.9103 8.85766Z" fill="#181D24"/>
</g>
<defs>
<clipPath id="clip0_284_3633">
<rect width="20" height="20" fill="white" transform="translate(0.5)"/>
</clipPath>
</defs>
</svg>
