<svg width="21" height="20" viewBox="0 0 21 20" fill="none" xmlns="http://www.w3.org/2000/svg">
<g clip-path="url(#clip0_284_3831)">
<path d="M20.4998 2.37973C20.5064 1.74141 20.2614 1.14133 19.81 0.689922C19.3646 0.244414 18.7743 0 18.1453 0C18.137 0 18.1286 3.90625e-05 18.1202 0.000117188C17.4819 0.00667969 16.887 0.263984 16.445 0.724531L12.9443 4.37238L3.78422 1.34098L1.07902 4.04617L8.7341 8.75961L5.5843 12.0419L3.11211 11.636L0.5 14.248L4.75992 15.7401L6.25195 20L8.86406 17.3879L8.4582 14.9157L11.7405 11.7659L16.4539 19.421L19.1591 16.7158L16.1277 7.5557L19.7755 4.05504C20.2361 3.61301 20.4933 3.01805 20.4998 2.37973ZM18.9633 3.20867L14.7816 7.22172L17.8182 16.3978L16.6743 17.5417L11.9771 9.91301L7.20066 14.4967L7.60902 16.984L6.74211 17.8509L5.68039 14.8196L2.64906 13.7579L3.51598 12.891L6.00328 13.2993L10.587 8.52293L2.95832 3.82578L4.10227 2.68184L13.2783 5.71852L17.2914 1.53676C17.5132 1.30555 17.8119 1.17641 18.1323 1.17309C18.1365 1.17301 18.1407 1.17301 18.1449 1.17301C18.4606 1.17301 18.757 1.2957 18.9807 1.51937C19.2073 1.74598 19.3302 2.04723 19.327 2.36766C19.3236 2.68809 19.1945 2.98676 18.9633 3.20867Z" fill="#181D24"/>
</g>
<defs>
<clipPath id="clip0_284_3831">
<rect width="20" height="20" fill="white" transform="translate(0.5)"/>
</clipPath>
</defs>
</svg>
