<svg width="20" height="20" viewBox="0 0 20 20" fill="none" xmlns="http://www.w3.org/2000/svg">
<g clip-path="url(#clip0_284_3862)">
<path d="M16.2144 16.4844C16.9602 15.8282 17.6024 15.0562 18.1104 14.1966C18.9632 12.7531 19.4141 11.0994 19.4141 9.41406C19.4141 6.89945 18.4348 4.53539 16.6568 2.7573C14.8787 0.979219 12.5146 0 10 0C7.48539 0 5.12133 0.979219 3.34324 2.7573C1.56516 4.53539 0.585938 6.89945 0.585938 9.41406C0.585938 11.0994 1.03676 12.7531 1.88965 14.1966C2.39762 15.0562 3.03977 15.8282 3.78562 16.4844H0V20H20V16.4844H16.2144ZM2.89855 13.6004C2.15227 12.3374 1.75781 10.8898 1.75781 9.41406C1.75781 4.8693 5.45523 1.17188 10 1.17188C14.5448 1.17188 18.2422 4.8693 18.2422 9.41406C18.2422 10.8898 17.8477 12.3374 17.1014 13.6004C16.4023 14.7836 15.4135 15.7774 14.2365 16.4844H12.9297V14.5321C14.7022 13.5136 15.8984 11.6009 15.8984 9.41406C15.8984 6.16164 13.2524 3.51562 10 3.51562C6.74758 3.51562 4.10156 6.16164 4.10156 9.41406C4.10156 11.6009 5.29781 13.5136 7.07031 14.5321V16.4844H5.76352C4.58652 15.7774 3.59766 14.7836 2.89855 13.6004ZM7.07031 8.24219V13.1205C5.97645 12.254 5.27344 10.9146 5.27344 9.41406C5.27344 6.80781 7.39375 4.6875 10 4.6875C12.6062 4.6875 14.7266 6.80781 14.7266 9.41406C14.7266 10.9146 14.0236 12.254 12.9297 13.1205V8.24219H11.7578V13.8014C11.2141 14.02 10.6209 14.1406 10 14.1406C9.37906 14.1406 8.78586 14.02 8.24219 13.8014V8.24219H7.07031ZM10 15.3125C10.612 15.3125 11.2024 15.2188 11.7578 15.045V16.4844H8.24219V15.045C8.79762 15.2188 9.38805 15.3125 10 15.3125ZM18.8281 18.8281H1.17188V17.6562H18.8281V18.8281Z" fill="#181D24"/>
</g>
<defs>
<clipPath id="clip0_284_3862">
<rect width="20" height="20" fill="white"/>
</clipPath>
</defs>
</svg>
