<svg width="20" height="20" viewBox="0 0 20 20" fill="none" xmlns="http://www.w3.org/2000/svg">
<path d="M18.6555 6.15473V4.63996C18.6555 3.53543 17.8267 2.63676 16.8079 2.63676C16.4382 2.63676 16.0938 2.75559 15.8046 2.95922C15.508 2.74957 15.1622 2.63672 14.7989 2.63672C13.7792 2.63672 12.9496 3.53535 12.9496 4.63992V6.15473H0V9.68738H1.17723V19.1436H18.8358V9.68742H20V6.15473H18.6555ZM16.1376 4.64004C16.1376 4.1923 16.4446 3.8141 16.8079 3.8141C17.1712 3.8141 17.4782 4.19234 17.4782 4.64004V6.1548H16.1376V4.64004ZM14.1269 4.64C14.1269 4.1923 14.4346 3.81406 14.7989 3.81406C14.9008 3.81406 15.0007 3.84371 15.0918 3.89938C15.0073 4.12867 14.9604 4.37844 14.9604 4.64004V6.1548H14.1269V4.64ZM17.6586 17.9664H16.4814V14.9182H15.3041V17.9664H14.1269V14.9182H12.9497V17.9664H2.35449V9.68742H17.6586V17.9664ZM18.8228 8.51016H1.17723V7.33199H18.8227V8.51016H18.8228Z" fill="#181D24"/>
</svg>
