<svg width="21" height="20" viewBox="0 0 21 20" fill="none" xmlns="http://www.w3.org/2000/svg">
<path d="M5.49948 0.625C3.08761 0.625 1.12448 2.86813 1.12448 5.625C1.10299 6.53165 1.32324 7.42767 1.76259 8.22104C2.20195 9.01441 2.84458 9.67653 3.62448 10.1394V17.5C3.62448 17.9973 3.82203 18.4742 4.17366 18.8258C4.52529 19.1775 5.0022 19.375 5.49948 19.375C5.99676 19.375 6.47368 19.1775 6.82531 18.8258C7.17694 18.4742 7.37448 17.9973 7.37448 17.5V10.1394C8.15438 9.67653 8.79701 9.01441 9.23637 8.22104C9.67573 7.42767 9.89597 6.53165 9.87448 5.625C9.87448 2.86813 7.91136 0.625 5.49948 0.625ZM6.51073 9.16813C6.39644 9.21537 6.29873 9.29546 6.22997 9.39826C6.16121 9.50106 6.1245 9.62195 6.12448 9.74563V17.5C6.12448 17.6658 6.05863 17.8247 5.94142 17.9419C5.82421 18.0592 5.66524 18.125 5.49948 18.125C5.33372 18.125 5.17475 18.0592 5.05754 17.9419C4.94033 17.8247 4.87448 17.6658 4.87448 17.5V9.74563C4.87446 9.62195 4.83775 9.50106 4.76899 9.39826C4.70024 9.29546 4.60253 9.21537 4.48823 9.16813C3.8294 8.84722 3.2785 8.34108 2.90305 7.71174C2.52759 7.0824 2.3439 6.35719 2.37448 5.625C2.37448 3.55687 3.77636 1.875 5.49948 1.875C7.22261 1.875 8.62448 3.55687 8.62448 5.625C8.65506 6.35719 8.47137 7.0824 8.09592 7.71174C7.72047 8.34108 7.16956 8.84722 6.51073 9.16813Z" fill="#181D24"/>
<path d="M19.25 0.625C19.0842 0.625 18.9253 0.690848 18.8081 0.808058C18.6908 0.925268 18.625 1.08424 18.625 1.25V7.5C18.625 7.99728 18.4275 8.47419 18.0758 8.82583C17.7242 9.17746 17.2473 9.375 16.75 9.375C16.5842 9.375 16.4253 9.44085 16.3081 9.55806C16.1908 9.67527 16.125 9.83424 16.125 10V17.5C16.125 17.6658 16.0592 17.8247 15.9419 17.9419C15.8247 18.0592 15.6658 18.125 15.5 18.125C15.3342 18.125 15.1753 18.0592 15.0581 17.9419C14.9408 17.8247 14.875 17.6658 14.875 17.5V10C14.875 9.83424 14.8092 9.67527 14.6919 9.55806C14.5747 9.44085 14.4158 9.375 14.25 9.375C13.7527 9.375 13.2758 9.17746 12.9242 8.82583C12.5725 8.47419 12.375 7.99728 12.375 7.5V1.25C12.375 1.08424 12.3092 0.925268 12.1919 0.808058C12.0747 0.690848 11.9158 0.625 11.75 0.625C11.5842 0.625 11.4253 0.690848 11.3081 0.808058C11.1908 0.925268 11.125 1.08424 11.125 1.25V7.5C11.1258 8.22016 11.3749 8.91802 11.8303 9.4759C12.2857 10.0338 12.9196 10.4175 13.625 10.5625V17.5C13.625 17.9973 13.8225 18.4742 14.1742 18.8258C14.5258 19.1775 15.0027 19.375 15.5 19.375C15.9973 19.375 16.4742 19.1775 16.8258 18.8258C17.1775 18.4742 17.375 17.9973 17.375 17.5V10.5625C18.0804 10.4175 18.7143 10.0338 19.1697 9.4759C19.6251 8.91802 19.8742 8.22016 19.875 7.5V1.25C19.875 1.08424 19.8092 0.925268 19.6919 0.808058C19.5747 0.690848 19.4158 0.625 19.25 0.625Z" fill="#181D24"/>
<path d="M14.25 8.125C14.4158 8.125 14.5747 8.05915 14.6919 7.94194C14.8092 7.82473 14.875 7.66576 14.875 7.5V1.25C14.875 1.08424 14.8092 0.925268 14.6919 0.808058C14.5747 0.690848 14.4158 0.625 14.25 0.625C14.0842 0.625 13.9253 0.690848 13.8081 0.808058C13.6908 0.925268 13.625 1.08424 13.625 1.25V7.5C13.625 7.66576 13.6908 7.82473 13.8081 7.94194C13.9253 8.05915 14.0842 8.125 14.25 8.125Z" fill="#181D24"/>
<path d="M16.75 8.125C16.9158 8.125 17.0747 8.05915 17.1919 7.94194C17.3092 7.82473 17.375 7.66576 17.375 7.5V1.25C17.375 1.08424 17.3092 0.925268 17.1919 0.808058C17.0747 0.690848 16.9158 0.625 16.75 0.625C16.5842 0.625 16.4253 0.690848 16.3081 0.808058C16.1908 0.925268 16.125 1.08424 16.125 1.25V7.5C16.125 7.66576 16.1908 7.82473 16.3081 7.94194C16.4253 8.05915 16.5842 8.125 16.75 8.125Z" fill="#181D24"/>
</svg>
