<svg width="20" height="20" viewBox="0 0 20 20" fill="none" xmlns="http://www.w3.org/2000/svg">
<g clip-path="url(#clip0_284_3801)">
<path d="M17.8889 9.16447C17.4054 9.16447 16.9878 9.01062 16.6142 8.70293C16.4164 8.54908 16.2406 8.37326 16.0647 8.19744C15.9329 8.06557 15.801 7.95568 15.6471 7.86777C15.3614 7.69194 15.0977 7.71392 14.834 7.86777C14.7021 7.95568 14.5702 8.04359 14.4603 8.15348C14.2845 8.3293 14.0867 8.50513 13.8889 8.65898C13.2515 9.18645 12.5702 9.29634 11.801 8.98865C11.6252 8.92271 11.4713 8.81282 11.3395 8.70293C11.1417 8.52711 10.9439 8.35128 10.746 8.17546C10.6362 8.06557 10.5043 7.95568 10.3724 7.86777C10.1087 7.69194 9.86693 7.66996 9.58121 7.82381C9.36143 7.95568 9.14165 8.1315 8.96583 8.30733C8.72407 8.54909 8.48231 8.76887 8.17462 8.92271C7.53726 9.25238 6.92187 9.2304 6.28451 8.90073C6.02077 8.74689 5.80099 8.54909 5.58121 8.32931C5.40539 8.15348 5.22957 7.99963 5.03176 7.86777C4.79001 7.71392 4.54825 7.69194 4.28451 7.82381C4.06473 7.9337 3.88891 8.10952 3.71308 8.26337C3.55924 8.39524 3.42737 8.52711 3.27352 8.65898C2.74605 9.09854 2.15264 9.27436 1.47132 9.09854C1.20759 9.0326 0.96583 8.90073 0.74605 8.74689C0.548247 8.59304 0.350445 8.41722 0.174621 8.24139C-0.00120325 8.04359 -0.0231813 7.77985 0.152643 7.58205C0.328467 7.38425 0.614181 7.38425 0.811984 7.56007C0.96583 7.69194 1.0977 7.82381 1.22957 7.95568C1.36143 8.08755 1.51528 8.15348 1.66913 8.19744C2.02077 8.28535 2.35045 8.21942 2.63616 7.95568C2.83396 7.80183 3.00979 7.62601 3.18561 7.47216C3.44935 7.2304 3.73506 7.0326 4.06473 6.90073C4.48231 6.74689 4.87792 6.76887 5.27352 6.94469C5.58121 7.07656 5.82297 7.29634 6.04275 7.51612C6.21858 7.66996 6.3944 7.84579 6.57023 7.99963C6.92187 8.28535 7.2955 8.30733 7.6911 8.1315C7.9988 7.97766 8.1966 7.71392 8.43836 7.51612C8.74605 7.27436 9.03176 7.0326 9.40539 6.90073C9.84495 6.76887 10.2406 6.79084 10.6362 7.01062C10.8999 7.14249 11.1417 7.31832 11.3395 7.5381C11.4933 7.71392 11.6911 7.86777 11.8669 8.02161C12.2186 8.30733 12.6801 8.3293 13.0537 8.08755C13.2955 7.9337 13.5153 7.71392 13.7131 7.51612C13.9548 7.29634 14.2186 7.09854 14.5043 6.96667C15.0537 6.72491 15.5592 6.76887 16.0647 7.07656C16.3724 7.27436 16.6362 7.51612 16.8999 7.77985C17.0757 7.95568 17.2735 8.1315 17.5153 8.19744C17.8889 8.28535 18.2186 8.21942 18.5043 7.95568C18.6801 7.77985 18.8779 7.64799 19.0537 7.47216C19.2735 7.25238 19.5812 7.31832 19.7351 7.49414C19.9109 7.69194 19.8889 7.97766 19.6911 8.17546C19.4713 8.37326 19.2515 8.57106 19.0318 8.74689C18.746 9.01062 18.3504 9.16447 17.8889 9.16447Z" fill="#181D24"/>
<path d="M17.822 17.231C17.4044 17.231 16.9868 17.0772 16.6132 16.7695C16.4154 16.6156 16.2396 16.4398 16.0637 16.264C15.9319 16.1321 15.8 16.0222 15.6462 15.9343C15.3604 15.7585 15.0967 15.7805 14.833 15.9343C14.6352 16.0442 14.4813 16.1981 14.3275 16.3519C14.1517 16.5277 13.9758 16.6816 13.778 16.8354C13.1846 17.275 12.5253 17.3629 11.822 17.0772C11.5802 16.9893 11.4044 16.8354 11.2066 16.6816C10.9648 16.4618 10.7451 16.22 10.4813 16.0222C10.1297 15.7365 9.84396 15.7365 9.47034 16.0003C9.16264 16.1981 8.94286 16.4618 8.67913 16.7036C8.23957 17.0552 7.75605 17.297 7.18462 17.253C6.96484 17.231 6.74506 17.1871 6.52528 17.0992C6.19561 16.9453 5.9099 16.7255 5.66814 16.4618C5.51429 16.286 5.31649 16.1541 5.14067 16.0003C4.85495 15.7805 4.54726 15.7585 4.23957 15.9563C4.04177 16.0882 3.84396 16.242 3.66814 16.4178C3.33847 16.7255 3.0088 17.0113 2.56924 17.1651C2.21759 17.275 1.86594 17.275 1.51429 17.2091C1.22858 17.1431 0.964842 16.9893 0.723084 16.8135C0.54726 16.6376 0.371436 16.4838 0.21759 16.308C0.0417655 16.1321 0.0197875 15.8464 0.195612 15.6486C0.349458 15.4728 0.635172 15.4288 0.832974 15.6047C0.986821 15.7365 1.11869 15.8904 1.27253 16.0222C1.69012 16.3959 2.21759 16.3959 2.65715 16.0662C2.87693 15.8904 3.09671 15.6926 3.29451 15.4948C3.66814 15.1651 4.06374 14.9233 4.56924 14.8794C4.78902 14.8574 5.0088 14.9014 5.2066 14.9673C5.55825 15.0992 5.84396 15.3189 6.1077 15.5827C6.28352 15.7365 6.43737 15.9124 6.63517 16.0442C6.98682 16.3299 7.36045 16.3739 7.77803 16.1761C8.06374 16.0222 8.26155 15.7805 8.5033 15.5827C8.85495 15.297 9.2066 14.9893 9.66814 14.9014C10.0637 14.8135 10.4374 14.9014 10.767 15.0992C11.0308 15.253 11.2725 15.4508 11.4703 15.6706C11.6242 15.8244 11.778 15.9563 11.9539 16.0882C12.3055 16.3739 12.7451 16.3739 13.1187 16.1541C13.3824 15.9783 13.6022 15.7585 13.822 15.5387C14.0857 15.297 14.3714 15.0992 14.7011 14.9673C15.1407 14.7915 15.5802 14.8354 15.9978 15.0772C16.2615 15.231 16.5033 15.4069 16.7011 15.6047C16.833 15.7365 16.9648 15.8684 17.0967 15.9783C17.6022 16.4178 18.1297 16.4178 18.6352 15.9783C18.811 15.8244 18.9868 15.6706 19.1626 15.5167C19.3385 15.3629 19.6022 15.3629 19.778 15.5167C19.9539 15.6706 19.9758 15.9124 19.8659 16.1102C19.822 16.1761 19.778 16.22 19.7341 16.264C19.5583 16.4178 19.4044 16.5717 19.2286 16.7255C18.833 17.0332 18.3934 17.231 17.822 17.231Z" fill="#181D24"/>
<path d="M17.8675 13.1872C17.3839 13.1872 16.9664 13.0333 16.5927 12.7037C16.3949 12.5498 16.2191 12.374 16.0433 12.1982C15.9114 12.0663 15.7576 11.9564 15.6037 11.8465C15.34 11.6927 15.0982 11.7366 14.8345 11.8685C14.6806 11.9564 14.5488 12.0663 14.4389 12.1762C14.2411 12.374 14.0433 12.5498 13.8235 12.7257C13.2081 13.2092 12.5488 13.2971 11.8235 13.0333C11.6037 12.9454 11.4279 12.8136 11.274 12.6817C10.9883 12.4399 10.7466 12.1542 10.4389 11.9344C10.1312 11.7147 9.84548 11.6927 9.53779 11.8905C9.33998 12.0224 9.14218 12.1762 8.98833 12.352C8.7246 12.6158 8.41691 12.8575 8.06526 13.0114C7.47185 13.2751 6.87844 13.2312 6.30702 12.9235C6.04328 12.7916 5.84548 12.5938 5.64768 12.374C5.47185 12.1982 5.29603 12.0443 5.09822 11.8905C4.85647 11.7147 4.59273 11.6927 4.30702 11.8465C4.08724 11.9564 3.91141 12.1322 3.73559 12.2861C3.58174 12.418 3.42789 12.5938 3.25207 12.7257C2.63669 13.2092 1.95537 13.3191 1.23009 13.0333C0.81251 12.8575 0.48284 12.5498 0.175148 12.1982C0.0213014 12.0224 0.0432794 11.7366 0.219104 11.5828C0.394928 11.407 0.658664 11.407 0.856466 11.5608C0.988334 11.6927 1.1202 11.8246 1.27405 11.9564C1.71361 12.352 2.30702 12.352 2.76855 11.9344C2.98833 11.7366 3.20811 11.5388 3.42789 11.363C3.73559 11.0993 4.08723 10.9015 4.48284 10.8355C4.76855 10.7916 5.05427 10.8355 5.33998 10.9454C5.64767 11.0773 5.88943 11.2751 6.10921 11.4949C6.28504 11.6487 6.43888 11.8026 6.61471 11.9564C7.01031 12.3301 7.58174 12.3301 8.0213 11.9784C8.15317 11.8685 8.28504 11.7366 8.41691 11.6268C8.59273 11.4509 8.79053 11.2971 9.01031 11.1432C9.64768 10.7257 10.307 10.6597 10.9664 11.1213C11.1642 11.2531 11.34 11.385 11.4938 11.5608C11.6477 11.7366 11.8455 11.8905 12.0213 12.0224C12.351 12.2861 12.8125 12.3081 13.1861 12.0663C13.4279 11.9125 13.6257 11.7147 13.8455 11.5169C14.0872 11.2751 14.351 11.0993 14.6587 10.9674C15.1861 10.7257 15.7136 10.7696 16.2191 11.0993C16.4828 11.2751 16.7246 11.4729 16.9444 11.6927C17.0762 11.8465 17.2301 11.9784 17.4059 12.0883C17.7795 12.3301 18.307 12.3081 18.7026 11.9344C18.8784 11.7806 19.0543 11.6268 19.2301 11.4509C19.4279 11.2751 19.7356 11.2971 19.8894 11.4729C20.0653 11.6707 20.0433 11.9564 19.8455 12.1542C19.6477 12.352 19.4279 12.5279 19.2081 12.7037C18.7686 13.0333 18.351 13.2092 17.8675 13.1872Z" fill="#181D24"/>
<path d="M1.99904 5.12105C1.5375 5.12105 1.11991 4.98919 0.746288 4.70347C0.570464 4.54963 0.39464 4.39578 0.218816 4.21996C0.0210135 4.02215 0.0210135 3.73644 0.17486 3.56062C0.350684 3.36281 0.636398 3.36281 0.856178 3.53864C0.988046 3.67051 1.11991 3.80237 1.25178 3.91226C1.69134 4.28589 2.19684 4.28589 2.6364 3.93424C2.8342 3.7804 3.032 3.60457 3.2298 3.42875C3.58145 3.12106 3.95508 2.85732 4.41662 2.79138C4.72431 2.72545 5.032 2.79138 5.31772 2.92325C5.60343 3.05512 5.82321 3.25292 6.06497 3.45073C6.21882 3.60457 6.39464 3.73644 6.54849 3.89029C6.98805 4.30787 7.58145 4.28589 8.02101 3.89029C8.15288 3.7804 8.28475 3.64853 8.41662 3.51666C8.65838 3.31886 8.90013 3.09908 9.18585 2.96721C9.75728 2.68149 10.3287 2.68149 10.9001 3.05512C11.1858 3.25292 11.4276 3.49468 11.6913 3.73644C11.8672 3.89029 12.043 4.06611 12.2847 4.15402C12.6364 4.26391 12.9441 4.19798 13.2518 3.9782C13.4716 3.82435 13.6474 3.64853 13.8452 3.45073C14.1089 3.18699 14.4166 2.98919 14.7683 2.85732C15.2078 2.70347 15.6474 2.72545 16.065 2.96721C16.3287 3.09908 16.5485 3.2749 16.7683 3.49468C16.9001 3.62655 17.032 3.75842 17.1639 3.86831C17.6254 4.28589 18.1749 4.30787 18.6584 3.91226C18.8342 3.75842 19.01 3.60457 19.1639 3.45073C19.3836 3.25292 19.6913 3.23095 19.8672 3.45073C20.043 3.67051 20.021 3.95622 19.7793 4.15402C19.6034 4.30787 19.4276 4.46171 19.2518 4.61556C18.4825 5.29688 17.3397 5.2749 16.6364 4.63754C16.4386 4.46171 16.2628 4.30787 16.0869 4.13204C15.9551 4.00018 15.8012 3.89029 15.6474 3.80237C15.3836 3.64853 15.1419 3.69248 14.9001 3.84633C14.7683 3.93424 14.6364 4.02215 14.5265 4.13204C14.3287 4.32985 14.1089 4.50567 13.8891 4.68149C13.2738 5.16501 12.5924 5.2749 11.8672 4.98919C11.6474 4.90128 11.4496 4.76941 11.2957 4.61556C11.076 4.41776 10.8782 4.21996 10.6584 4.02215C10.5265 3.91226 10.3727 3.80237 10.1968 3.73644C9.99904 3.67051 9.82321 3.71446 9.64739 3.80237C9.42761 3.91226 9.25178 4.06611 9.07596 4.24193C8.8342 4.50567 8.54849 4.72545 8.24079 4.90127C7.60343 5.23095 6.98805 5.20897 6.35068 4.8793C6.08695 4.74743 5.88914 4.54963 5.66936 4.32985C5.49354 4.15402 5.29574 4.00018 5.09794 3.84633C4.8342 3.64853 4.57046 3.64853 4.28475 3.80237C4.06497 3.93424 3.88915 4.11007 3.71332 4.26391C3.58145 4.3738 3.44958 4.52765 3.29574 4.63754C2.90013 4.94523 2.48255 5.14303 1.99904 5.12105Z" fill="#181D24"/>
</g>
<defs>
<clipPath id="clip0_284_3801">
<rect width="20" height="20" fill="white"/>
</clipPath>
</defs>
</svg>
