<svg width="20" height="20" viewBox="0 0 20 20" fill="none" xmlns="http://www.w3.org/2000/svg">
<path d="M19.9435 7.45314L19.4989 5.72543L16.2151 6.57039L15.9103 5.38602L17.0052 5.1043L16.713 3.96875L13.3878 4.82434L13.68 5.95989L14.7748 5.67817L15.0796 6.86254L4.41714 9.60613L4.1124 8.42173L5.20722 8.14001L4.91503 7.00446L1.58983 7.86005L1.88202 8.9956L2.97685 8.71388L3.28159 9.89829L0 10.7427L0.444583 12.4704C0.686357 13.4101 1.67683 13.9954 2.61684 13.7536L8.4237 12.2594C8.41502 12.3306 8.41006 12.4028 8.41006 12.4763V14.858H6.28145V16.0305H14.1066V14.858H11.978V12.4763C11.978 12.0865 11.8521 11.7259 11.6392 11.4321L18.6604 9.62544C19.613 9.38031 20.1886 8.40582 19.9435 7.45314ZM9.58258 14.858V12.4762C9.58258 12.1391 9.85691 11.8648 10.1941 11.8648C10.5312 11.8648 10.8055 12.1391 10.8055 12.4762V14.858H9.58258ZM18.3682 8.48985L2.32465 12.618C1.9981 12.7021 1.66413 12.5048 1.5801 12.1783L1.42771 11.5861L18.6556 7.15317L18.808 7.74534C18.892 8.07185 18.6947 8.40586 18.3682 8.48985Z" fill="#181D24"/>
</svg>
