<svg width="20" height="20" viewBox="0 0 20 20" fill="none" xmlns="http://www.w3.org/2000/svg">
<g clip-path="url(#clip0_284_3733)">
<path d="M7.00723 4.30914H6.77383V1.46969C6.77383 1.13965 6.50625 0.87207 6.17621 0.87207H2.55676C2.22672 0.87207 1.95914 1.13965 1.95914 1.46969V4.30918H1.72578C0.772031 4.30918 -0.00390625 5.08512 -0.00390625 6.03887V17.3988C-0.00390625 18.3525 0.772031 19.1285 1.72578 19.1285H7.00723C7.96098 19.1285 8.73691 18.3525 8.73691 17.3988V6.03883C8.73691 5.08508 7.96098 4.30914 7.00723 4.30914ZM3.15437 2.0673H5.57859V4.30918H3.15437V2.0673ZM1.19133 6.03883C1.19133 5.74414 1.43109 5.50437 1.72578 5.50437H7.00723C7.30191 5.50437 7.54168 5.74414 7.54168 6.03883V8.30516H1.19133V6.03883ZM7.54172 17.3987C7.54172 17.6935 7.30195 17.9332 7.00723 17.9332H1.72578C1.43109 17.9332 1.19133 17.6935 1.19133 17.3987V15.1325H7.54172V17.3987ZM7.54172 13.9372H1.19133V9.50039H7.54172V13.9372Z" fill="#181D24"/>
<path d="M18.269 4.30914H18.0356V1.46969C18.0356 1.13965 17.768 0.87207 17.438 0.87207H13.8185C13.4885 0.87207 13.2209 1.13965 13.2209 1.46969V4.30918H12.9875C12.0337 4.30918 11.2578 5.08512 11.2578 6.03887V17.3988C11.2578 18.3525 12.0337 19.1285 12.9875 19.1285H18.269C19.2227 19.1285 19.9987 18.3525 19.9987 17.3988V6.03883C19.9987 5.08508 19.2227 4.30914 18.269 4.30914ZM14.4162 2.0673H16.8404V4.30918H14.4162V2.0673ZM18.8034 17.3987C18.8034 17.6935 18.5637 17.9332 18.269 17.9332H12.9875C12.6929 17.9332 12.4531 17.6934 12.4531 17.3987V15.1325H18.8034V17.3987ZM18.8034 13.9372H12.453V9.50039H18.8034V13.9372ZM18.8034 8.30516H12.453V6.03883C12.453 5.74414 12.6928 5.50437 12.9875 5.50437H18.269C18.5637 5.50437 18.8034 5.74414 18.8034 6.03883V8.30516Z" fill="#181D24"/>
</g>
<defs>
<clipPath id="clip0_284_3733">
<rect width="20" height="20" fill="white"/>
</clipPath>
</defs>
</svg>
