<svg width="20" height="20" viewBox="0 0 20 20" fill="none" xmlns="http://www.w3.org/2000/svg">
<g clip-path="url(#clip0_284_3520)">
<path d="M18.4634 14.6533C18.196 14.4643 17.826 14.5279 17.6371 14.7953C17.6346 14.7988 17.3676 15.155 16.866 15.3849C16.1536 15.7115 15.3237 15.6314 14.3995 15.1469C14.3628 15.1277 14.3257 15.1085 14.2884 15.0894V4.22722C14.2884 2.55019 15.6528 1.18582 17.3298 1.18582C17.6572 1.18582 17.9227 0.92035 17.9227 0.592889C17.9226 0.265468 17.6572 0 17.3297 0C14.9988 0 13.1025 1.89632 13.1025 4.22722V6.03796H3.82873V4.22722C3.82873 2.55023 5.1931 1.18586 6.87013 1.18586C7.19759 1.18586 7.46306 0.920389 7.46306 0.592929C7.46306 0.265468 7.19759 0 6.87013 0C4.53924 0 2.64291 1.89632 2.64291 4.22722V14.6288C2.31209 14.7576 1.97721 14.8995 1.63811 15.0556C1.34065 15.1925 1.21053 15.5446 1.34741 15.8421C1.48436 16.1395 1.83651 16.2697 2.13397 16.1327C7.23536 13.7843 11.3203 14.8716 13.8489 16.1972C14.6512 16.6178 15.3564 16.7659 15.9521 16.7659C16.5275 16.7659 17.0008 16.6275 17.3601 16.4629C18.1514 16.1002 18.5613 15.5421 18.6054 15.4796C18.7944 15.2122 18.7309 14.8422 18.4634 14.6533ZM13.1025 14.5477C10.7685 13.6088 7.60087 13.0642 3.82873 14.2169V11.4038H13.1025V14.5477ZM13.1025 10.2179H3.82873V7.22381H13.1025V10.2179Z" fill="#181D24"/>
<path d="M18.4634 17.8875C18.196 17.6986 17.826 17.7621 17.637 18.0296C17.6345 18.033 17.3676 18.3893 16.866 18.6192C16.1535 18.9458 15.3236 18.8656 14.3995 18.3812C11.6352 16.9321 7.17728 15.7398 1.63811 18.2898C1.34065 18.4267 1.21053 18.7789 1.34741 19.0763C1.48436 19.3738 1.83647 19.5039 2.13393 19.367C7.23533 17.0186 11.3202 18.1058 13.8488 19.4314C14.6512 19.852 15.3564 20.0002 15.9521 20.0002C16.5275 20.0002 17.0008 19.8618 17.36 19.6972C18.1514 19.3344 18.5613 18.7763 18.6054 18.7139C18.7944 18.4465 18.7308 18.0765 18.4634 17.8875Z" fill="#181D24"/>
</g>
<defs>
<clipPath id="clip0_284_3520">
<rect width="20" height="20" fill="white"/>
</clipPath>
</defs>
</svg>
