<svg width="20" height="20" viewBox="0 0 20 20" fill="none" xmlns="http://www.w3.org/2000/svg">
<g clip-path="url(#clip0_284_3561)">
<path d="M17.6754 2.32469C14.5225 -0.828392 9.30603 -0.793822 6.22549 2.55805C4.03983 4.80472 3.45729 8.39682 4.87537 11.3751L0.581513 15.669C-0.193838 16.4443 -0.193838 17.7058 0.581513 18.4811L1.51893 19.4185C2.29428 20.1939 3.55573 20.1938 4.33104 19.4185L8.62486 15.1247C9.86927 15.7176 11.2742 15.9838 12.6838 15.8734C13.2121 17.004 14.3596 17.7896 15.6877 17.7896C17.5151 17.7896 19.0018 16.3029 19.0018 14.4754C19.0018 13.8061 18.8018 13.1829 18.4591 12.6613C20.7649 9.52803 20.4662 5.11546 17.6754 2.32469ZM12.3758 14.5642C11.1349 14.6231 9.89923 14.3363 8.82138 13.7349C8.56267 13.5906 8.23931 13.6355 8.02974 13.8451L3.39369 18.4811C3.1353 18.7395 2.71483 18.7395 2.45631 18.4811L1.51889 17.5437C1.2605 17.2852 1.2605 16.8648 1.51889 16.6063L6.15494 11.9703C6.36451 11.7608 6.40951 11.4375 6.2651 11.1787C5.55873 9.9126 5.29346 8.443 5.49244 7.01464L12.4175 13.9397C12.3793 14.1735 12.3705 14.366 12.3758 14.5642ZM15.6877 16.4639C14.5913 16.4639 13.6993 15.5719 13.6993 14.4754C13.6993 13.379 14.5913 12.487 15.6877 12.487C16.7842 12.487 17.6762 13.379 17.6762 14.4754C17.6762 15.5719 16.7842 16.4639 15.6877 16.4639ZM17.5096 11.7089C16.9865 11.3632 16.3603 11.1613 15.6877 11.1613C14.5548 11.1613 13.5532 11.733 12.9553 12.6027L5.87635 5.52374C6.16869 4.75898 6.61498 4.05718 7.1815 3.47644C7.18626 3.47152 7.19103 3.46648 7.19564 3.4614C9.74575 0.679613 14.0935 0.617503 16.738 3.26199C19.0013 5.52531 19.2908 9.11858 17.5096 11.7089Z" fill="#181D24"/>
</g>
<defs>
<clipPath id="clip0_284_3561">
<rect width="20" height="20" fill="white"/>
</clipPath>
</defs>
</svg>
