<svg width="20" height="20" viewBox="0 0 20 20" fill="none" xmlns="http://www.w3.org/2000/svg">
<g clip-path="url(#clip0_284_3698)">
<path d="M17.1641 19.999H5.28906C4.96547 19.999 4.70312 19.7367 4.70312 19.4131V1.81543C4.70312 1.46004 4.41398 1.1709 4.05859 1.1709C3.735 1.1709 3.47266 0.908555 3.47266 0.584961C3.47266 0.261367 3.735 -0.000976562 4.05859 -0.000976562H15.9922C16.9614 -0.000976562 17.75 0.787578 17.75 1.75684V19.4131C17.75 19.7367 17.4877 19.999 17.1641 19.999ZM5.875 18.8271H16.5781V1.75684C16.5781 1.43375 16.3153 1.1709 15.9922 1.1709H5.75691C5.8332 1.37129 5.875 1.58855 5.875 1.81543V18.8271Z" fill="#181D24"/>
<path d="M17.166 15.2734H5.29102C4.96742 15.2734 4.70508 15.0111 4.70508 14.6875V12.1875C4.70508 11.8639 4.96742 11.6016 5.29102 11.6016H17.166C17.4896 11.6016 17.752 11.8639 17.752 12.1875V14.6875C17.752 15.0111 17.4896 15.2734 17.166 15.2734ZM5.87695 14.1016H16.5801V12.7734H5.87695V14.1016Z" fill="#181D24"/>
<path d="M5.28906 17.46H2.82812C2.50453 17.46 2.24219 17.1976 2.24219 16.874V1.81543C2.24219 0.813867 3.05703 -0.000976562 4.05859 -0.000976562C5.06016 -0.000976562 5.875 0.813867 5.875 1.81543V16.874C5.875 17.1976 5.61266 17.46 5.28906 17.46ZM3.41406 16.2881H4.70312V1.81543C4.70312 1.46004 4.41398 1.1709 4.05859 1.1709C3.7032 1.1709 3.41406 1.46004 3.41406 1.81543V16.2881Z" fill="#181D24"/>
<path d="M4.05877 1.17125H4.03924C3.71555 1.17125 3.45312 0.908827 3.45312 0.585136C3.45312 0.261446 3.71555 -0.000976562 4.03924 -0.000976562H4.05877C4.38247 -0.000976562 4.64489 0.261446 4.64489 0.585136C4.64489 0.908827 4.38247 1.17125 4.05877 1.17125Z" fill="#181D24"/>
</g>
<defs>
<clipPath id="clip0_284_3698">
<rect width="20" height="20" fill="white"/>
</clipPath>
</defs>
</svg>
