<svg width="21" height="20" viewBox="0 0 21 20" fill="none" xmlns="http://www.w3.org/2000/svg">
<g clip-path="url(#clip0_284_3616)">
<path d="M19.9011 1.51855H1.09113C0.7625 1.51855 0.496094 1.78496 0.496094 2.11359V14.8512C0.496094 15.1798 0.7625 15.4462 1.09113 15.4462H7.63656V17.2907H5.45609C5.12746 17.2907 4.86105 17.5571 4.86105 17.8858C4.86105 18.2144 5.12746 18.4808 5.45609 18.4808H15.5364C15.865 18.4808 16.1314 18.2144 16.1314 17.8858C16.1314 17.5571 15.865 17.2907 15.5364 17.2907H13.3559V15.4462H19.9011C20.2297 15.4462 20.4961 15.1798 20.4961 14.8512V2.11359C20.4961 1.78496 20.2297 1.51855 19.9011 1.51855ZM12.1658 17.2907H8.8266V15.4462H12.1658V17.2907ZM19.306 14.2562H1.68617V13.2427H19.306V14.2562H19.306ZM19.306 12.0526H1.68617V2.70863H19.306V12.0526H19.306Z" fill="#181D24"/>
</g>
<defs>
<clipPath id="clip0_284_3616">
<rect width="20" height="20" fill="white" transform="translate(0.5)"/>
</clipPath>
</defs>
</svg>
