<svg width="20" height="20" viewBox="0 0 20 20" fill="none" xmlns="http://www.w3.org/2000/svg">
<g clip-path="url(#clip0_284_3877)">
<path d="M18.5707 1.43165C18.5703 1.43126 18.5699 1.43086 18.5695 1.43047C18.5691 1.43008 18.5687 1.42973 18.5684 1.42938C17.6461 0.507619 16.4201 0 15.1161 0C13.8115 0 12.5851 0.50801 11.6626 1.43047C10.2706 2.82247 7.60218 7.18862 7.28206 9.95422L0 17.2363L2.76368 20L10.0457 12.7179C12.8113 12.3978 17.1775 9.72937 18.5695 8.33738C19.492 7.41491 20 6.18846 20 4.88393C20 3.57994 19.4924 2.35395 18.5707 1.43165ZM17.2603 2.10634C17.4718 2.10634 17.6394 2.15766 17.7409 2.25911C17.9226 2.44083 17.9435 2.83485 17.7967 3.31314C17.6091 3.9242 17.1683 4.60787 16.5873 5.18893C15.9778 5.79846 14.3739 7.23511 12.7166 8.52058C10.6528 10.1213 9.71215 10.5523 9.33328 10.6668C9.44773 10.2879 9.87871 9.34726 11.4795 7.28347C12.7649 5.62615 14.2016 4.02228 14.8111 3.41271C15.3921 2.83169 16.0758 2.39087 16.6869 2.20333C16.8981 2.13848 17.0929 2.10634 17.2603 2.10634ZM12.4912 2.25911C13.1924 1.55801 14.1245 1.17188 15.1161 1.17188C15.3785 1.17188 15.6366 1.19918 15.8875 1.25196C15.2312 1.53633 14.5687 1.99782 13.9824 2.58407C13.2963 3.27017 11.6484 5.11889 10.2904 6.90788C9.52332 7.91847 8.95332 8.77078 8.59613 9.44117C8.5782 9.47484 8.55769 9.51344 8.53582 9.55543C9.07082 7.08569 11.3513 3.39911 12.4912 2.25911ZM1.65731 17.2363L7.84558 11.048L8.95199 12.1544L2.76368 18.3427L1.65731 17.2363ZM17.7409 7.50874C16.6009 8.64871 12.9143 10.9291 10.4446 11.4641C10.4866 11.4422 10.5252 11.4218 10.5588 11.4038C11.2292 11.0466 12.0815 10.4766 13.0921 9.70953C14.8811 8.35156 16.7298 6.70366 17.4159 6.01752C18.0022 5.43127 18.4637 4.76873 18.748 4.11244C18.8008 4.36334 18.8281 4.6215 18.8281 4.88389C18.8281 5.87545 18.442 6.80761 17.7409 7.50874Z" fill="#181D24"/>
</g>
<defs>
<clipPath id="clip0_284_3877">
<rect width="20" height="20" fill="white"/>
</clipPath>
</defs>
</svg>
