<svg width="21" height="20" viewBox="0 0 21 20" fill="none" xmlns="http://www.w3.org/2000/svg">
<path d="M17.1348 20H3.85352C2.88426 20 2.0957 19.2114 2.0957 18.2422V1.75781C2.0957 0.788555 2.88426 0 3.85352 0H17.1348C18.104 0 18.8926 0.788594 18.8926 1.75781V18.2422C18.8926 19.2114 18.104 20 17.1348 20ZM3.85352 1.17188C3.53043 1.17188 3.26758 1.43473 3.26758 1.75781V18.2422C3.26758 18.5653 3.53043 18.8281 3.85352 18.8281H17.1348C17.4579 18.8281 17.7207 18.5653 17.7207 18.2422V1.75781C17.7207 1.43473 17.4579 1.17188 17.1348 1.17188H3.85352Z" fill="#181D24"/>
<path d="M18.3066 5.58594H2.68164C2.35805 5.58594 2.0957 5.32359 2.0957 5C2.0957 4.67641 2.35805 4.41406 2.68164 4.41406H18.3066C18.6302 4.41406 18.8926 4.67641 18.8926 5C18.8926 5.32359 18.6302 5.58594 18.3066 5.58594Z" fill="#181D24"/>
<path d="M7.05859 5.58594C6.735 5.58594 6.47266 5.32359 6.47266 5V0.585937C6.47266 0.262344 6.735 0 7.05859 0C7.38219 0 7.64453 0.262344 7.64453 0.585937V5C7.64453 5.32359 7.38219 5.58594 7.05859 5.58594Z" fill="#181D24"/>
<path d="M15.8109 3.39879H15.1857C14.862 3.39879 14.5996 3.13637 14.5996 2.81268C14.5996 2.48898 14.862 2.22656 15.1857 2.22656H15.8109C16.1346 2.22656 16.397 2.48898 16.397 2.81268C16.397 3.13637 16.1346 3.39879 15.8109 3.39879Z" fill="#181D24"/>
<path d="M12.682 3.39879H12.0568C11.7331 3.39879 11.4707 3.13637 11.4707 2.81268C11.4707 2.48898 11.7331 2.22656 12.0568 2.22656H12.682C13.0057 2.22656 13.2681 2.48898 13.2681 2.81268C13.2681 3.13637 13.0057 3.39879 12.682 3.39879Z" fill="#181D24"/>
<path d="M10.4961 17.4609C7.58832 17.4609 5.22266 15.0953 5.22266 12.1875C5.22266 9.27977 7.58832 6.91406 10.4961 6.91406C13.4039 6.91406 15.7695 9.27977 15.7695 12.1875C15.7695 15.0953 13.4039 17.4609 10.4961 17.4609ZM10.4961 8.08594C8.23449 8.08594 6.39453 9.92594 6.39453 12.1875C6.39453 14.4491 8.23449 16.2891 10.4961 16.2891C12.7577 16.2891 14.5977 14.4491 14.5977 12.1875C14.5977 9.9259 12.7577 8.08594 10.4961 8.08594Z" fill="#181D24"/>
<path d="M9.56268 3.39879C9.88638 3.39879 10.1488 3.13638 10.1488 2.81268C10.1488 2.48897 9.88638 2.22656 9.56268 2.22656C9.23897 2.22656 8.97656 2.48897 8.97656 2.81268C8.97656 3.13638 9.23897 3.39879 9.56268 3.39879Z" fill="#181D24"/>
</svg>
