<svg width="20" height="20" viewBox="0 0 20 20" fill="none" xmlns="http://www.w3.org/2000/svg">
<g clip-path="url(#clip0_284_3542)">
<path d="M9.96094 18.2227C10.6729 18.2227 11.25 17.6455 11.25 16.9336C11.25 16.2217 10.6729 15.6445 9.96094 15.6445C9.24901 15.6445 8.67188 16.2217 8.67188 16.9336C8.67188 17.6455 9.24901 18.2227 9.96094 18.2227Z" fill="#181D24"/>
<path d="M19.7922 6.04937C17.2246 3.29457 13.7478 1.77738 10.0018 1.77734C6.25611 1.77738 2.77928 3.29457 0.211668 6.04937C-0.0824725 6.36499 -0.0650897 6.85936 0.250535 7.15354C0.566198 7.44768 1.06053 7.43034 1.35471 7.11468C3.62346 4.68046 6.69439 3.33988 10.0021 3.33984C13.3095 3.33988 16.3804 4.68046 18.6492 7.11468C18.803 7.27976 19.0117 7.36327 19.2208 7.36327C19.4116 7.36327 19.6028 7.29382 19.7533 7.15354C20.069 6.85933 20.0864 6.36499 19.7922 6.04937Z" fill="#181D24"/>
<path d="M16.9217 9.27581C15.0238 7.36355 12.5656 6.31047 9.99999 6.31055C7.43378 6.31059 4.97558 7.36371 3.07824 9.27589C2.77434 9.58218 2.77625 10.0768 3.08254 10.3807C3.38883 10.6846 3.88348 10.6827 4.18738 10.3764C5.78914 8.76214 7.85343 7.87308 9.99999 7.87304C12.146 7.87297 14.2103 8.76207 15.8126 10.3765C15.9654 10.5304 16.1662 10.6074 16.3672 10.6074C16.5661 10.6074 16.7651 10.5319 16.9176 10.3807C17.2238 10.0767 17.2256 9.58206 16.9217 9.27581Z" fill="#181D24"/>
<path d="M13.7939 12.5114C12.7775 11.5044 11.3206 10.8789 9.99164 10.8789C9.99149 10.8789 9.99121 10.8789 9.99106 10.8789H9.93477C9.93453 10.8789 9.93442 10.8789 9.93418 10.8789C8.60516 10.8789 7.14813 11.5045 6.13177 12.5114C5.82528 12.8151 5.82298 13.3097 6.12665 13.6162C6.27942 13.7704 6.48052 13.8477 6.68165 13.8477C6.88036 13.8477 7.07915 13.7723 7.23145 13.6214C7.955 12.9045 9.01582 12.4414 9.93426 12.4414C9.93438 12.4414 9.93453 12.4414 9.93465 12.4414H9.99117C9.99133 12.4414 9.99137 12.4414 9.99152 12.4414C10.9098 12.4414 11.9707 12.9046 12.6942 13.6214C13.0007 13.925 13.4954 13.9228 13.7991 13.6162C14.1028 13.3098 14.1005 12.8151 13.7939 12.5114Z" fill="#181D24"/>
</g>
<defs>
<clipPath id="clip0_284_3542">
<rect width="20" height="20" fill="white"/>
</clipPath>
</defs>
</svg>
